<?xml version="1.0" standalone="no"?>
<!DOCTYPE svg PUBLIC "-//W3C//DTD SVG 1.1//EN" "http://www.w3.org/Graphics/SVG/1.1/DTD/svg11.dtd" >
<svg xmlns="http://www.w3.org/2000/svg">
<metadata>Generated by IcoMoon</metadata>
<defs>
<font id="icomoon" horiz-adv-x="1024">
<font-face units-per-em="1024" ascent="960" descent="-64" />
<missing-glyph horiz-adv-x="1024" />
<glyph unicode="&#x20;" horiz-adv-x="512" d="" />
<glyph unicode="&#xe900;" glyph-name="aceitacao" d="M800.582 608.349c-2.395 6.046-8.192 10.245-14.969 10.245-0.138 0-0.275-0.002-0.411-0.005h-201.289l199.447 315.811c1.486 2.345 2.369 5.2 2.369 8.262s-0.882 5.917-2.406 8.326l0.038-0.064-3.724 4.655c-3.006 2.743-7.024 4.423-11.433 4.423-0.071 0-0.143 0-0.214-0.001h-272.978c-4.231-0.129-8.052-1.785-10.951-4.434l0.013 0.012h-1.164v-1.629c-0.974-0.743-1.817-1.586-2.536-2.528l-0.024-0.032-256-512c-1.634-2.38-2.61-5.323-2.61-8.495s0.976-6.115 2.644-8.546l-0.033 0.051c3.517-4.836 9.032-8.035 15.309-8.376l0.051-0.002h175.011l-191.069-454.749c-0.692-1.793-1.093-3.868-1.093-6.037 0-6.024 3.093-11.325 7.777-14.403l0.065-0.040c2.143-1.751 4.909-2.812 7.922-2.812 0.242 0 0.483 0.007 0.722 0.020l-0.033-0.001c0.003 0 0.006 0 0.010 0 5.26 0 10.068 1.939 13.746 5.142l-0.025-0.022 545.978 648.611c2.229 3.006 3.568 6.789 3.568 10.884 0 2.807-0.629 5.466-1.753 7.846l0.048-0.112zM320.698 84.015l139.636 343.738s11.404 20.247 4.887 29.324c-5.352 3.743-11.905 6.124-18.989 6.512l-0.095 0.004h-151.273l205.498 443.811h200.844l-170.589-289.513s-18.385-21.644-11.869-31.185c0 0 0-10.938 23.273-8.844h160.349z" />
<glyph unicode="&#xe901;" glyph-name="area" horiz-adv-x="716" d="M59.653 643.821h196.031c0.253-0.004 0.551-0.006 0.849-0.006 32.945 0 59.653 26.707 59.653 59.653 0 0.299-0.002 0.597-0.007 0.894l0.001-0.045v196.031c0 0.002 0 0.004 0 0.006 0 32.945-26.707 59.653-59.653 59.653-0.296 0-0.592-0.002-0.888-0.006l0.045 0.001h-196.031c-32.945 0-59.653-26.707-59.653-59.653v0-196.031c-0.004-0.251-0.006-0.547-0.006-0.843 0-32.945 26.707-59.653 59.653-59.653 0.002 0 0.004 0 0.006 0v0zM42.157 900.347c0 9.662 7.833 17.495 17.495 17.495v0h196.031c9.662 0 17.495-7.833 17.495-17.495v0-196.031c-0.117-9.615-7.88-17.378-17.484-17.495h-196.042c-9.662 0-17.495 7.833-17.495 17.495v0zM59.653 290.332h196.031c0.251-0.004 0.547-0.006 0.843-0.006 32.945 0 59.653 26.707 59.653 59.653 0 0.002 0 0.004 0 0.006v0 196.031c0 32.945-26.707 59.653-59.653 59.653h-196.874c-32.945 0-59.653-26.707-59.653-59.653v0-196.031c0-32.945 26.707-59.653 59.653-59.653v0zM42.157 546.016c0 9.662 7.833 17.495 17.495 17.495v0h196.031c9.662 0 17.495-7.833 17.495-17.495v0-196.031c0-9.662-7.833-17.495-17.495-17.495h-196.031c-9.662 0-17.495 7.833-17.495 17.495v0zM643.109 822.146h-179.379l37.731 37.731c3.788 3.81 6.13 9.062 6.13 14.86s-2.341 11.050-6.131 14.861l0.001-0.001c-3.82 3.851-9.115 6.235-14.966 6.235s-11.145-2.384-14.964-6.234l-0.001-0.001-56.702-56.069c-8.36-8.323-13.533-19.841-13.533-32.566s5.173-24.244 13.531-32.565l0.002-0.002 55.858-56.069c3.82-3.851 9.115-6.235 14.966-6.235s11.145 2.384 14.964 6.234l0.001 0.001c3.851 3.82 6.235 9.115 6.235 14.966s-2.384 11.145-6.234 14.964l-0.001 0.001-36.888 37.731h180.012c16.949-0.119 30.656-13.826 30.775-30.764v-602.228c-0.469-16.748-14.157-30.145-30.974-30.145-0.152 0-0.304 0.001-0.456 0.003h-326.907v74.829c-0.12 32.854-26.781 59.442-59.652 59.442 0 0 0 0 0 0h-196.874c0 0 0 0 0 0-32.871 0-59.532-26.587-59.652-59.43v-196.042c0-32.945 26.707-59.653 59.653-59.653v0h196.031c0.251-0.004 0.547-0.006 0.843-0.006 32.945 0 59.653 26.707 59.653 59.653 0 0.002 0 0.004 0 0.006v0 79.045h326.93c0.065 0 0.142 0 0.218 0 40.142 0 72.752 32.244 73.345 72.244l0.001 0.056v602.217c-0.239 40.331-32.988 72.932-73.352 72.932-0.074 0-0.149 0-0.223 0h0.011zM274.022-4.347c0-9.662-7.833-17.495-17.495-17.495h-196.874c-9.662 0-17.495 7.833-17.495 17.495v0 196.031c0.119 9.571 7.906 17.284 17.494 17.284 0 0 0.001 0 0.001 0h196.031c0 0 0.001 0 0.001 0 9.588 0 17.375-7.713 17.494-17.273v-0.011z" />
<glyph unicode="&#xe902;" glyph-name="areacateg" d="M829.235-23.040h-829.235v668.672h245.76v273.408h778.24v-622.797h-194.765zM57.344 585.626v-545.382h714.547v256.614h-526.131v288.768zM302.285 857.6v-500.531h664.371v500.531z" />
<glyph unicode="&#xe903;" glyph-name="seta" d="M563.429 619.429v292.952c0 28.19-23.238 51.429-51.429 51.429s-51.429-23.238-51.429-51.429v-292.952h102.857zM853.333 324.571c-20.19 20.19-52.571 20.19-72.762 0l-217.143-217.143v340.19h-102.857v-340.19l-217.143 217.143c-20.19 20.19-52.571 20.19-72.762 0-9.524-9.524-15.238-22.476-15.238-36.19s5.333-26.667 15.238-36.19l304.762-304.762c9.905-9.905 23.238-14.857 36.19-14.857s26.286 4.952 36.19 14.857l304.762 304.762c9.524 9.905 15.238 22.476 15.238 36.19 0.381 13.714-4.952 26.667-14.476 36.19z" />
<glyph unicode="&#xe904;" glyph-name="attention" horiz-adv-x="1023" d="M483.503 515.059v-281.372c0-15.563 12.616-28.18 28.18-28.18s28.18 12.616 28.18 28.18v0 281.372c0 15.563-12.616 28.18-28.18 28.18s-28.18-12.616-28.18-28.18v0zM550.879 651.084c0.010 0.32 0.015 0.697 0.015 1.074 0 21.18-17.17 38.35-38.35 38.35-0.378 0-0.754-0.005-1.13-0.016l0.055 0.001c-21.144-1.478-37.931-18.265-39.402-39.275l-0.007-0.134c0-21.765 17.644-39.409 39.409-39.409s39.409 17.644 39.409 39.409v0zM534.353 960c-6.766 0.32-14.697 0.502-22.671 0.502-282.638 0-511.761-229.123-511.761-511.761 0-274.664 216.378-498.791 487.972-511.218l1.118-0.041c8.629-0.56 18.709-0.879 28.864-0.879 74.223 0 144.464 17.053 207.016 47.456l-2.816-1.235c6.688 4.647 11.011 12.291 11.011 20.944 0 14.042-11.383 25.425-25.425 25.425-3.035 0-5.947-0.532-8.645-1.508l0.177 0.056c-59.277-25.2-128.224-39.847-200.592-39.847-1.36 0-2.72 0.005-4.077 0.016l0.209-0.001c-244.461 12.816-437.828 214.156-437.828 460.66 0 5.872 0.11 11.719 0.327 17.538l-0.025-0.84c12.82 244.458 214.159 437.82 460.66 437.82 5.798 0 11.57-0.107 17.316-0.319l-0.83 0.024c244.458-12.82 437.82-214.159 437.82-460.66 0-5.798-0.107-11.57-0.319-17.316l0.024 0.83c-3.54-73.563-24.162-141.601-57.951-201.191l1.168 2.239c-2.291-3.743-3.647-8.273-3.647-13.121 0-14.042 11.383-25.425 25.425-25.425 10.6 0 19.685 6.486 23.502 15.706l0.062 0.169c39.146 64.957 62.653 143.205 63.561 226.876l0.002 0.256c0.193 5.254 0.304 11.426 0.304 17.624 0 274.951-216.864 499.251-488.874 511.183l-1.076 0.038z" />
<glyph unicode="&#xe905;" glyph-name="back" d="M411.307 449.28l374.4 374.187c13.462 13.536 21.784 32.196 21.784 52.8s-8.322 39.264-21.787 52.803l0.003-0.003-9.813 9.6c-13.712 13.069-32.317 21.11-52.8 21.11s-39.088-8.041-52.831-21.139l0.031 0.029-435.627-435.2c-13.48-14.042-21.781-33.145-21.781-54.187s8.301-40.145 21.806-54.213l-0.025 0.027 435.2-435.413c13.488-13.194 31.966-21.335 52.345-21.335 0.197 0 0.395 0.001 0.592 0.002h-0.030c0.207-0.002 0.451-0.003 0.696-0.003 20.27 0 38.637 8.147 52.005 21.344l-0.008-0.008 9.813 9.6c13.462 13.536 21.784 32.196 21.784 52.8s-8.322 39.264-21.787 52.803l0.003-0.003z" />
<glyph unicode="&#xe906;" glyph-name="banner" d="M991.311 871.385h-964.923c-14.574 0-26.388-11.814-26.388-26.388v0-795.963c0-14.574 11.814-26.388 26.388-26.388v0h964.923c14.489 0.112 26.191 11.883 26.191 26.387 0 0 0 0.001 0 0.001v0 795.963c0 0 0 0 0 0.001 0 14.504-11.702 26.275-26.18 26.387h-0.011zM52.775 696.714v121.895h737.477v-121.895zM964.923 643.938v-568.517h-912.148v568.517zM964.923 818.609v-121.895h-122.092v121.895zM142.769 304.837h731.963c14.574 0 26.388 11.814 26.388 26.388v0 232.96c0 14.574-11.814 26.388-26.388 26.388v0h-731.963c-14.489-0.112-26.191-11.883-26.191-26.387 0 0 0-0.001 0-0.001v0-232.96c0 0 0 0 0-0.001 0-14.504 11.702-26.275 26.18-26.387h0.011zM691.791 357.612h-522.634v180.185h679.188v-180.185h-156.554z" />
<glyph unicode="&#xe907;" glyph-name="blacklist" d="M685.875 934.4v-192.307h192.102l-192.102 192.307zM903.782 705.843h-255.795v254.157h-525.107v-1017.037h780.902zM255.386 402.33c-3.307 3.3-5.353 7.863-5.353 12.903 0 10.005 8.060 18.127 18.041 18.226h0.009c5.025-0.062 9.566-2.081 12.907-5.329l-0.004 0.004 24.781-24.986 78.234 62.464c3.008 2.547 6.932 4.096 11.217 4.096 0.016 0 0.033 0 0.049 0h-0.003c0.019 0 0.040 0 0.062 0 5.676 0 10.738-2.623 14.042-6.724l0.027-0.035c2.429-3.093 3.895-7.041 3.895-11.332 0-5.737-2.621-10.862-6.731-14.242l-0.032-0.025-90.726-72.704c-3.087-2.387-7.001-3.843-11.253-3.891h-0.011c-0.033 0-0.073 0-0.112 0-5 0-9.524 2.036-12.789 5.324l-0.001 0.001zM406.528 238.49l-90.726-73.523c-2.993-2.425-6.847-3.893-11.044-3.893-0.077 0-0.155 0-0.232 0.001h0.012c-0.021 0-0.046 0-0.072 0-4.976 0-9.496 1.95-12.839 5.128l0.008-0.007-36.25 36.045c-3.295 3.267-5.335 7.795-5.335 12.8s2.040 9.533 5.334 12.799l0.001 0.001c3.171 3.285 7.613 5.326 12.532 5.326 0.058 0 0.116 0 0.174-0.001h-0.009c0.033 0 0.073 0 0.112 0 5 0 9.524-2.036 12.789-5.324l24.782-24.782 78.234 61.44c3.008 2.547 6.932 4.096 11.217 4.096 0.016 0 0.033 0 0.049 0h-0.003c9.96-0.139 17.981-8.246 17.981-18.226 0-5.686-2.604-10.765-6.684-14.107l-0.032-0.026zM406.528 637.85l-90.726-73.318c-3.034-2.528-6.967-4.071-11.258-4.096h-0.006c-5.025 0.062-9.566 2.081-12.907 5.329l0.004-0.004-36.25 36.454c-3.285 3.171-5.326 7.613-5.326 12.532 0 0.058 0 0.116 0.001 0.174v-0.009c0 0.033 0 0.073 0 0.112 0 5 2.036 9.524 5.324 12.789l0.001 0.001c3.081 2.811 7.198 4.533 11.717 4.533 0.345 0 0.688-0.010 1.028-0.030l-0.047 0.002c0.033 0 0.073 0 0.112 0 5 0 9.524-2.036 12.789-5.324l24.782-24.782 78.234 61.44c3.067 2.426 6.991 3.891 11.257 3.891 0.003 0 0.005 0 0.008 0v0c0.019 0 0.040 0 0.062 0 5.676 0 10.738-2.623 14.042-6.724l0.027-0.035c1.929-2.868 3.078-6.399 3.078-10.198 0-5.356-2.285-10.179-5.933-13.547l-0.013-0.011zM740.352 179.917h-289.792c-10.067 0-18.227 8.161-18.227 18.227s8.161 18.227 18.227 18.227v0h289.792c10.067 0 18.227-8.161 18.227-18.227s-8.161-18.227-18.227-18.227v0zM740.352 379.597h-289.792c-10.067 0-18.227 8.161-18.227 18.227s8.161 18.227 18.227 18.227v0h289.792c10.067 0 18.227-8.161 18.227-18.227s-8.161-18.227-18.227-18.227v0zM740.352 579.482h-289.792c-0.579-0.065-1.25-0.102-1.929-0.102-10.067 0-18.227 8.161-18.227 18.227s8.161 18.227 18.227 18.227c0.68 0 1.351-0.037 2.011-0.11l-0.082 0.007h289.792c0.579 0.065 1.25 0.102 1.929 0.102 10.067 0 18.227-8.161 18.227-18.227s-8.161-18.227-18.227-18.227c-0.68 0-1.351 0.037-2.011 0.11l0.082-0.007z" />
<glyph unicode="&#xe908;" glyph-name="cadastro" horiz-adv-x="1026" d="M517.057 51.796c5.651-6.774 9.082-15.572 9.082-25.172 0-0.004 0-0.007 0-0.011v0.001q0-30.342-32.2-30.342h-370.093c-0.871-0.023-1.897-0.036-2.925-0.036-33.014 0-62.911 13.34-84.597 34.924l0.005-0.005c-22.4 21.063-36.351 50.891-36.351 83.977 0 0.809 0.008 1.617 0.025 2.422l-0.002-0.12v722.435c-0.002 0.26-0.003 0.568-0.003 0.876 0 33.077 13.943 62.897 36.272 83.904l0.059 0.055c21.721 21.82 51.782 35.323 84.996 35.323 0.887 0 1.771-0.010 2.653-0.029l-0.131 0.002h779.198c0.811 0.020 1.766 0.031 2.723 0.031 33.216 0 63.279-13.504 84.996-35.322l0.005-0.005c22.394-21.063 36.341-50.886 36.341-83.968 0-0.595-0.005-1.189-0.014-1.782l0.001 0.090v-562.467c-1.333-15.647-14.362-27.842-30.239-27.842s-28.907 12.195-30.231 27.73l-0.008 0.112v562.467c0.012 0.427 0.019 0.93 0.019 1.434 0 16.721-7.419 31.709-19.145 41.853l-0.070 0.059c-11.325 10.581-26.572 17.091-43.338 17.132h-780.238c-0.821 0.041-1.783 0.064-2.75 0.064-16.763 0-31.894-6.987-42.64-18.207l-0.020-0.021c-10.594-10.791-17.133-25.594-17.133-41.924 0-0.137 0-0.274 0.001-0.411v0.021-715.623c-0.008-0.344-0.012-0.75-0.012-1.157 0-16.805 7.411-31.879 19.143-42.133l0.066-0.056c11.325-10.581 26.572-17.091 43.338-17.132h371.546c8.815-0.361 16.567-4.617 21.625-11.083l0.048-0.064zM880.958 817.99c5.873-5.034 9.646-12.372 9.907-20.597l0.001-0.044c0.257-1.39 0.405-2.99 0.405-4.624 0-14.706-11.921-26.627-26.627-26.627-1.381 0-2.737 0.105-4.062 0.308l0.148-0.019h-695.602c-1.071-0.151-2.308-0.238-3.565-0.238-14.82 0-26.833 12.014-26.833 26.833 0 1.322 0.096 2.621 0.28 3.892l-0.017-0.145c-0.171 1.135-0.269 2.445-0.269 3.778 0 14.706 11.921 26.627 26.627 26.627 1.333 0 2.643-0.098 3.924-0.287l-0.145 0.018h695.602c7.917-0.398 14.991-3.711 20.232-8.879l-0.004 0.003zM880.958 628.506c-5.277-5.379-12.534-8.8-20.589-9.081l-0.052-0.001h-695.189c-1.176-0.184-2.533-0.289-3.914-0.289-14.706 0-26.627 11.921-26.627 26.627 0 1.634 0.147 3.234 0.429 4.786l-0.024-0.162c-0.101 0.872-0.158 1.883-0.158 2.907 0 14.82 12.014 26.833 26.833 26.833 1.22 0 2.421-0.081 3.598-0.239l-0.138 0.015h695.602c1.11 0.164 2.392 0.258 3.696 0.258 14.706 0 26.627-11.921 26.627-26.627 0-1.109-0.068-2.203-0.2-3.276l0.013 0.129c0.005-0.197 0.008-0.429 0.008-0.662 0-8.503-3.837-16.109-9.873-21.183l-0.042-0.035zM324.477 526.539c1.199 0.191 2.581 0.301 3.989 0.301 14.706 0 26.627-11.921 26.627-26.627 0-1.344-0.1-2.665-0.292-3.955l0.018 0.146c0.17-1.135 0.267-2.444 0.267-3.776 0-14.82-12.014-26.833-26.833-26.833-1.332 0-2.641 0.097-3.921 0.284l0.145-0.017h-159.349c-1.135-0.17-2.444-0.267-3.776-0.267-14.82 0-26.833 12.014-26.833 26.833 0 1.332 0.097 2.641 0.284 3.921l-0.017-0.145c-0.174 1.145-0.274 2.465-0.274 3.81 0 14.706 11.921 26.627 26.627 26.627 1.408 0 2.79-0.109 4.139-0.32l-0.15 0.019zM1026.271 2.464c0.036-0.82 0.057-1.781 0.057-2.747 0-17.673-6.941-33.725-18.246-45.579l0.025 0.026c-11.74-11.289-27.721-18.241-45.325-18.241-1.119 0-2.231 0.028-3.336 0.084l0.155-0.006c-1.488-0.116-3.222-0.182-4.972-0.182-17.972 0-34.314 6.981-46.46 18.38l0.037-0.034-120.956 120.956c-31.631-14.812-68.684-23.455-107.757-23.455-2.9 0-5.788 0.048-8.665 0.142l0.419-0.011c-1.819-0.050-3.96-0.078-6.108-0.078-70.26 0-133.446 30.289-177.212 78.521l-0.178 0.199c-38.669 43.961-62.267 101.998-62.267 165.547 0 10.546 0.65 20.94 1.912 31.145l-0.123-1.221c13.282 117.489 107.489 209.288 224.942 218.738l0.871 0.056c9.713 1.371 20.933 2.154 32.335 2.154 62.837 0 120.122-23.776 163.348-62.822l-0.213 0.189c48.476-45.894 78.643-110.701 78.643-182.553 0-0.26 0-0.519-0.001-0.778v0.040c-0.712-44.994-14.158-86.706-36.878-121.865l0.55 0.908 123.846-123.846c7.567-12.234 12.051-27.069 12.051-42.95 0-3.778-0.254-7.498-0.745-11.141l0.047 0.425zM953.614 14.642l-134.992 134.992c-7.925 6.56-12.936 16.398-12.936 27.407 0 7.944 2.609 15.278 7.017 21.193l-0.067-0.094c22.323 28.111 35.893 64.051 36.122 103.153v0.052c0.015 0.872 0.023 1.901 0.023 2.931 0 103.623-84.003 187.627-187.627 187.627-7.061 0-14.031-0.39-20.89-1.15l0.845 0.076c-43.613-6.649-81.689-26.609-110.856-55.538l0.013 0.013c-34.121-32.643-55.329-78.54-55.329-129.39 0-48.915 19.625-93.246 51.43-125.549l-0.023 0.023c34.77-37.573 84.116-61.224 138.994-61.922l0.127-0.001c3.903-0.352 8.442-0.552 13.028-0.552 31.753 0 61.262 9.611 85.775 26.084l-0.552-0.35c5.653 3.886 12.646 6.206 20.181 6.206 1.398 0 2.778-0.080 4.135-0.235l-0.166 0.015c0.634 0.041 1.374 0.064 2.12 0.064 11.499 0 21.714-5.499 28.159-14.011l0.064-0.088 134.992-133.134h12.178c0.206 2.683-3.922 6.812-11.972 12.178z" />
<glyph unicode="&#xe909;" glyph-name="calendario" d="M903.771 879.945h-47.798v80.055h-80.055v-80.055h-527.835v80.055h-80.055v-80.055h-48.092c-66.239 0-119.936-53.697-119.936-119.936v0-703.78c0.166-66.172 53.764-119.769 119.92-119.936h783.851c0 0 0 0 0 0 66.298 0 120.062 53.661 120.229 119.92v703.796c-0.167 66.274-53.931 119.936-120.229 119.936 0 0 0 0 0 0v0zM952.742 492.866v-416.403c-0.818-42.61-35.553-76.838-78.282-76.838-0.417 0-0.834 0.003-1.249 0.010l0.063-0.001h-720.495c-0.44-0.009-0.959-0.014-1.48-0.014-42.731 0-77.466 34.231-78.281 76.767l-0.001 0.076v517.572c0 1.781 1.444 3.226 3.226 3.226h868.289c0.002 0 0.003 0 0.005 0 4.432 0 8.043-3.511 8.205-7.903v-0.015zM952.742 735.084s0-2.053 0-2.932v-68.032h-879.725v93.251c2.8 26.763 25.241 47.446 52.513 47.446 1.747 0 3.475-0.085 5.179-0.251l-0.216 0.017h765.068c1.838 0.227 3.965 0.356 6.123 0.356 27.315 0 49.784-20.748 52.507-47.344l0.019-0.225zM632.816 163.849h80.348v-80.348h-80.348v80.348zM471.826 163.849h80.348v-80.348h-80.348v80.348zM310.836 163.849h80.348v-80.348h-80.348v80.348zM149.847 163.849h80.348v-80.348h-80.348v80.348zM793.805 338.621h80.348v-80.348h-80.348v80.348zM632.816 338.621h80.348v-80.348h-80.348v80.348zM471.826 338.621h80.348v-80.348h-80.348v80.348zM310.836 338.621h80.348v-80.348h-80.348v80.348zM149.847 338.621h80.348v-80.348h-80.348v80.348zM793.805 513.393h80.348v-80.348h-80.348v80.348zM632.816 513.393h80.348v-80.348h-80.348v80.348zM471.826 513.393h80.348v-80.348h-80.348v80.348zM310.836 513.393h80.348v-80.348h-80.348v80.348zM149.847 513.393h80.348v-80.348h-80.348v80.348z" />
<glyph unicode="&#xe90a;" glyph-name="card1" d="M106.701 103.322c-58.929 0-106.701 47.772-106.701 106.701v0 469.197c0.116 58.882 47.819 106.585 106.69 106.701h810.609c58.929 0 106.701-47.772 106.701-106.701v0-469.197c0-58.929-47.772-106.701-106.701-106.701v0zM42.598 210.022c0.232-35.268 28.818-63.782 64.091-63.898h810.609c35.29 0 63.898 28.608 63.898 63.898v0 312.934h-938.394zM981.197 654.438v24.986c-0.116 35.243-28.655 63.782-63.887 63.898h-810.814c-35.29 0-63.898-28.608-63.898-63.898v0-24.986zM789.299 231.322c-0.002 0-0.005 0-0.008 0-35.043 0-63.518 28.119-64.094 63.024l-0.001 0.054v43.622c0 35.403 28.7 64.102 64.102 64.102h42.598c35.315-0.116 63.898-28.771 63.898-64.102 0 0 0 0 0 0v0-43.622c0 0 0 0 0 0 0-35.331-28.583-63.986-63.886-64.102h-0.011zM768.819 338.022v-43.622c0-11.311 9.169-20.48 20.48-20.48v0h42.598c11.311 0 20.48 9.169 20.48 20.48v0 43.622c0 11.311-9.169 20.48-20.48 20.48v0h-42.598c-11.311 0-20.48-9.169-20.48-20.48v0 0zM149.299 231.322c-11.311 0-20.48 9.169-20.48 20.48v0 0c-0.016 0.306-0.026 0.664-0.026 1.024 0 11.311 9.169 20.48 20.48 20.48 0.009 0 0.018 0 0.027 0h255.999c11.82 0 21.402-9.582 21.402-21.402s-9.582-21.402-21.402-21.402v0zM149.299 316.723c-11.311 0-20.48 9.169-20.48 20.48v0 0c0 11.311 9.169 20.48 20.48 20.48v0h255.795c11.763 0 21.299-9.536 21.299-21.299s-9.536-21.299-21.299-21.299v0z" />
<glyph unicode="&#xe90b;" glyph-name="card2" d="M106.701 103.322c-58.929 0-106.701 47.772-106.701 106.701v0 469.197c0.116 58.882 47.819 106.585 106.69 106.701h810.609c58.929 0 106.701-47.772 106.701-106.701v0-469.197c0-58.929-47.772-106.701-106.701-106.701v0zM42.598 210.022c0.232-35.268 28.818-63.782 64.091-63.898h810.609c35.29 0 63.898 28.608 63.898 63.898v0 277.299h-938.394zM42.598 530.125h938.598v85.402h-938.598zM981.197 658.125v20.48c-0.115 35.284-28.63 63.871-63.875 64.102h-810.825c-35.029-0.113-63.437-28.304-63.897-63.24v-20.523zM789.299 231.526c-0.004 0-0.008 0-0.012 0-34.971 0-63.401 28.003-64.090 62.809l-0.001 0.064v43.622c0 35.403 28.7 64.102 64.102 64.102h42.598c35.315-0.116 63.898-28.771 63.898-64.102 0 0 0 0 0 0v0-43.622c0-35.29-28.608-63.898-63.898-63.898v0zM768.819 338.022v-43.622c0-11.311 9.169-20.48 20.48-20.48v0h42.598c11.311 0 20.48 9.169 20.48 20.48v0 43.622c0 11.311-9.169 20.48-20.48 20.48v0h-42.598c-11.311 0-20.48-9.169-20.48-20.48v0 0zM150.323 231.526c-11.311 0-20.48 9.169-20.48 20.48v0 0c0 11.311 9.169 20.48 20.48 20.48v0h256c11.763 0 21.299-9.536 21.299-21.299s-9.536-21.299-21.299-21.299v0zM150.323 316.723c-0.008 0-0.017 0-0.026 0-11.311 0-20.48 9.169-20.48 20.48 0 0.36 0.009 0.718 0.028 1.074l-0.002-0.050c0 11.311 9.169 20.48 20.48 20.48v0h254.771c11.82 0 21.402-9.582 21.402-21.402s-9.582-21.402-21.402-21.402v0z" />
<glyph unicode="&#xe90c;" glyph-name="carrinho_1" d="M1016.123 724.086c-7.673 10.424-19.89 17.117-33.671 17.132h-713.849l-32.295 119.335c-5.072 17.75-21.149 30.525-40.211 30.525-0.125 0-0.25-0.001-0.374-0.002h-154.172c0 0 0 0 0 0-22.879 0-41.438-18.491-41.55-41.343v-0.011c0.112-22.863 18.672-41.354 41.55-41.354 0 0 0 0 0 0h122.486l144.345-526.178c14.2-50.467 59.817-86.845 113.93-86.845 0.239 0 0.477 0.001 0.716 0.002h348.911c0.227-0.002 0.495-0.002 0.763-0.002 51.87 0 95.933 33.424 111.827 79.909l0.247 0.832 137.846 410.782c1.238 3.714 1.953 7.991 1.953 12.435 0 9.374-3.18 18.006-8.52 24.875l0.068-0.092zM925.538 658.511l-118.154-356.234c-4.918-14.315-18.265-24.419-33.971-24.419-0.034 0-0.068 0-0.102 0h-350.321c-0.028 0-0.061 0-0.095 0-16.322 0-30.081 10.97-34.306 25.94l-0.061 0.251-97.28 354.462zM475.175 70.892c0-37.521-30.417-67.938-67.938-67.938s-67.938 30.417-67.938 67.938c0 37.521 30.417 67.938 67.938 67.938s67.938-30.417 67.938-67.938zM849.329 70.892c0-37.521-30.417-67.938-67.938-67.938s-67.938 30.417-67.938 67.938c0 37.521 30.417 67.938 67.938 67.938s67.938-30.417 67.938-67.938z" />
<glyph unicode="&#xe90d;" glyph-name="circle" d="M512 960c-282.77 0-512-229.23-512-512s229.23-512 512-512c282.77 0 512 229.23 512 512v0c0 282.77-229.23 512-512 512v0zM512 96.894c-194.299 0-351.809 157.51-351.809 351.809s157.51 351.809 351.809 351.809c194.299 0 351.809-157.51 351.809-351.809v0c0-194.299-157.51-351.809-351.809-351.809v0z" />
<glyph unicode="&#xe90e;" glyph-name="clip_1" d="M953.123 839.529c-94.569 94.569-240.941 107.62-341.333 30.72-3.302-1.681-6.142-3.688-8.654-6.042l0.020 0.019-11.645-11.445-3.213-3.012-3.815-4.016-517.020-518.425c-3.614-3.012-7.027-6.224-10.441-9.437-34.932-35.846-56.477-84.884-56.477-138.954 0-109.246 87.952-197.95 196.911-199.165l0.115-0.001h1.205c0.645-0.008 1.407-0.012 2.171-0.012 53.473 0 101.891 21.639 136.977 56.637l-0.004-0.004 4.618 5.020c3.13 1.402 5.795 3.296 8.023 5.614l485.304 485.504c0.812 0.778 1.539 1.632 2.173 2.555l0.036 0.055 3.614 3.614 2.61 3.213c19.017 22.903 30.557 52.608 30.557 85.007 0 36.612-14.736 69.782-38.6 93.903l0.012-0.012c-23.896 24.211-57.077 39.207-93.761 39.207-32.088 0-61.495-11.474-84.344-30.543l0.21 0.17-389.722-388.518c-5.975-5.992-9.669-14.26-9.669-23.391s3.694-17.4 9.67-23.392l-0.001 0.001c6.106-5.802 14.382-9.37 23.492-9.37s17.386 3.569 23.506 9.384l-0.015-0.014 127.699 127.699 253.591 251.984c11.819 11.819 28.146 19.129 46.18 19.129 36.069 0 65.309-29.24 65.309-65.309 0-18.035-7.31-34.362-19.129-46.18v0l-157.415-157.214c-2.777-2.367-5.863-4.557-9.135-6.463l-0.302-0.163-225.682-226.685-104.207-104.207c-21.845-22.070-52.144-35.736-85.635-35.736s-63.79 13.666-85.624 35.726l-15.069 15.069c-22.070 21.845-35.736 52.144-35.736 85.635s13.666 63.79 35.726 85.624l156.22 156.22c6.34 6.327 13.377 11.959 20.984 16.772l0.499 0.295 341.333 341.333c35.718 37.155 85.839 60.237 141.352 60.237 108.23 0 195.967-87.737 195.967-195.967 0-52.717-20.816-100.572-54.677-135.795l0.062 0.064-410.805-410.604c-6.235-6.247-10.090-14.871-10.090-24.395s3.856-18.148 10.091-24.396l-0.001 0.001c6.362-6.061 14.993-9.791 24.496-9.791s18.134 3.729 24.51 9.804l419.625 419.424c95.172 97.782 90.152 259.815-12.649 363.018z" />
<glyph unicode="&#xe90f;" glyph-name="attention1" d="M511.489 960c-282.487 0-511.489-229.001-511.489-511.489s229.001-511.489 511.489-511.489c282.487 0 511.489 229.001 511.489 511.489v0c0 282.487-229.001 511.489-511.489 511.489v0zM511.489-1.598c-248.589 0-450.11 201.521-450.11 450.11s201.521 450.11 450.11 450.11c248.589 0 450.11-201.521 450.11-450.11v0c0-248.589-201.521-450.11-450.11-450.11v0zM564.479 644.923h-104.957c-0.052 0.001-0.114 0.001-0.176 0.001-3.324 0-6.317-1.415-8.41-3.677l-0.007-0.008c-1.813-2.1-2.918-4.856-2.918-7.869 0-0.399 0.019-0.793 0.057-1.182l-0.004 0.049 26.597-271.498c0.542-5.872 5.444-10.434 11.412-10.434 0.016 0 0.032 0 0.048 0h47.669c0.020 0 0.043 0 0.066 0 5.895 0 10.751 4.453 11.387 10.178l0.005 0.052 30.689 272.112c0.034 0.34 0.053 0.734 0.053 1.133 0 3.014-1.104 5.77-2.931 7.885l0.013-0.015c-2.096 2.031-4.958 3.283-8.112 3.283-0.169 0-0.338-0.004-0.505-0.011l0.024 0.001zM487.551 324.322h44.397c6.441 0 11.662-5.221 11.662-11.662v0-50.126c0-6.328-5.13-11.457-11.457-11.457h-44.602c-6.328 0-11.457 5.13-11.457 11.457v0 50.126c-0.001 0.061-0.002 0.133-0.002 0.205 0 6.328 5.13 11.457 11.457 11.457 0.001 0 0.001 0 0.002 0v0z" />
<glyph unicode="&#xe910;" glyph-name="attention2" horiz-adv-x="1029" d="M1022.222 217.556c-88.889 172.889-224 435.333-371.111 684.889-12.667 38.444-51.111 57.556-95.556 57.556-1.966 0.127-4.262 0.2-6.576 0.2-41.348 0-77.29-23.14-95.585-57.177l-0.284-0.578c-173.111-307.333-319.778-595.111-403.333-742.444l-44.444-83.111c-2.781-8.94-4.382-19.218-4.382-29.871 0-31.556 14.054-59.829 36.244-78.902l0.138-0.116c24.372-19.011 55.144-30.873 88.637-31.993l0.252-0.007h819.333c17.673 0 32 14.327 32 32s-14.327 32-32 32v0h-825.556c-14.312 1.419-27.304 6.030-38.594 13.106l0.372-0.217c-8.2 8.402-13.258 19.902-13.258 32.583 0 2.066 0.134 4.101 0.395 6.096l-0.025-0.235 38.444 76.667c76.667 153.556 224 435.333 396.667 743.111 9.874 14.172 26.090 23.329 44.444 23.329s34.571-9.158 44.328-23.153l0.116-0.176c140.667-249.556 281.556-511.111 371.111-684.889 6.718-9.496 17.656-15.621 30.025-15.621 5.21 0 10.167 1.087 14.655 3.046l-0.236-0.092c20.444 12 26.889 30.889 13.778 44zM555.556 281.556c0.548-0.035 1.188-0.056 1.833-0.056 16.691 0 30.222 13.531 30.222 30.222 0 0.645-0.020 1.285-0.060 1.92l0.004-0.087v281.556c0 17.673-14.327 32-32 32s-32-14.327-32-32v0-281.556c3.396-16.121 15.879-28.604 31.732-31.953l0.268-0.047zM555.556 121.556c21.232 0 38.444 17.212 38.444 38.444s-17.212 38.444-38.444 38.444v0c-21.232 0-38.444-17.212-38.444-38.444s17.212-38.444 38.444-38.444v0z" />
<glyph unicode="&#xe911;" glyph-name="bell" horiz-adv-x="796" d="M729.494 277.474v259.385c-0.919 147.697-104.231 271.005-242.479 302.566l-2.096 0.403v50.354c0 39.14-38.083 69.818-86.744 69.818s-86.744-30.678-86.744-69.818v-57.124c-128.409-39.964-220.248-157.188-221.513-296.050l-0.001-0.148v-255.577c-0.589 0.014-1.282 0.022-1.977 0.022-48.842 0-88.436-39.594-88.436-88.436s39.594-88.436 88.436-88.436c2.036 0 4.055 0.069 6.057 0.204l-0.271-0.015h277.58c15.073 0 27.293 12.219 27.293 27.293s-12.219 27.293-27.293 27.293h-277.58c-1.809-0.336-3.89-0.529-6.017-0.529-19.046 0-34.486 15.44-34.486 34.486s15.44 34.486 34.486 34.486c2.126 0 4.208-0.192 6.228-0.561l-0.211 0.032h23.061c14.75 0.118 26.661 12.102 26.661 26.869 0 0.149-0.001 0.298-0.004 0.446v-0.022 282.446c1.162 121.717 85.845 223.331 199.437 250.356l1.766 0.355c16.988 4.226 36.674 6.966 56.89 7.605l0.446 0.011h7.828c15.796-0.346 30.97-1.947 45.736-4.712l-1.729 0.269c125.176-19.041 220.233-125.109 221.935-253.707l0.002-0.177v-282.446c-0.001-0.063-0.001-0.138-0.001-0.212 0-14.882 12.005-26.961 26.859-27.080h0.011c1.809 0.336 3.89 0.529 6.017 0.529 19.046 0 34.486-15.44 34.486-34.486s-15.44-34.486-34.486-34.486c-2.126 0-4.208 0.192-6.228 0.561l0.211-0.032h-201.203c-14.75-0.118-26.661-12.102-26.661-26.869 0-0.149 0.001-0.298 0.004-0.446v0.022-63.471c0.002-0.189 0.003-0.412 0.003-0.636 0-42.384-34.24-76.772-76.568-77.010h-0.023c-0.008 0-0.017 0-0.027 0-27.715 0-51.954 14.886-65.156 37.099l-0.192 0.349c-4.877 7.628-13.302 12.613-22.892 12.613-5.054 0-9.785-1.385-13.834-3.795l0.124 0.069c-7.718-5.006-12.752-13.58-12.752-23.329 0-5.209 1.437-10.082 3.936-14.244l-0.070 0.126c22.865-38.254 64.063-63.471 111.15-63.471 0.048 0 0.096 0 0.143 0h-0.007c72.106 0.598 130.329 59.19 130.329 131.381 0 0.225-0.001 0.449-0.002 0.673v-0.035 36.39h174.334c0.705-0.020 1.535-0.031 2.368-0.031 49.522 0 89.844 39.385 91.354 88.54l0.003 0.139c-1.119 40.595-29.169 74.338-66.871 84.069l-0.62 0.136zM431.18 848.714c-7.193 0-14.175 1.693-21.157 1.693h-9.521c-12.572-0.278-24.636-1.345-36.456-3.157l1.546 0.195v42.737c0 5.289 12.906 15.445 33.005 15.445s33.005-10.155 33.005-15.445z" />
<glyph unicode="&#xe912;" glyph-name="contrast" horiz-adv-x="1032" d="M512.871 960h-1.245c-282.701 0-511.876-229.174-511.876-511.876s229.174-511.876 511.876-511.876v0h3.237c0.447-0.001 0.976-0.002 1.506-0.002 283.401 0 513.374 228.753 515.348 511.69l0.001 0.188c-1.97 283.128-231.945 511.887-515.349 511.887-1.23 0-2.458-0.004-3.686-0.013l0.188 0.001zM618.682 237.997l-26.39 74.69h-80.665v-314.694c-248.463 0-449.883 201.419-449.883 449.883s201.419 449.883 449.883 449.883v0-239.755h54.275l160.086-420.007zM320.669 248.204h92.118l27.386 74.69h71.951v67.968h-48.051l33.859 96.101c4.73 13.195 9.461 27.635 13.693 43.32v117.512h-34.855z" />
<glyph unicode="&#xe913;" glyph-name="down_1" d="M1000.96 715.093l-9.6 10.24c-13.536 13.462-32.196 21.784-52.8 21.784s-39.264-8.322-52.803-21.787l0.003 0.003-373.76-374.827-374.827 374.827c-13.536 13.462-32.196 21.784-52.8 21.784s-39.264-8.322-52.803-21.787l-10.237-10.237c-13.565-13.489-21.961-32.164-21.961-52.8s8.396-39.312 21.957-52.797l435.203-435.203c13.488-13.193 31.965-21.334 52.344-21.334 0.123 0 0.246 0 0.369 0.001h2.754c0.141-0.001 0.308-0.002 0.475-0.002 20.406 0 38.912 8.14 52.446 21.35l435.185 435.185c13.822 13.528 22.391 32.376 22.391 53.224 0 20.426-8.225 38.93-21.544 52.382l0.006-0.006z" />
<glyph unicode="&#xe914;" glyph-name="ecommerce" d="M665.6 960h-552.96v-1024h802.202v774.963zM675.635 882.586l161.587-161.587h-161.382zM857.702-11.981h-696.32v921.6h476.57v-230.4h219.955zM527.36 598.938c-1.012 0.014-2.207 0.022-3.403 0.022-22.419 0-44.192-2.771-64.993-7.989l1.836 0.39c-19.881-4.934-37.342-11.958-53.498-21.032l1.069 0.552c-15.14-8.824-28.146-19.222-39.442-31.244l-0.084-0.091c-10.655-11.135-20.136-23.549-28.148-36.944l-0.524-0.944c-7.020-11.647-13.508-25.156-18.712-39.286l-0.54-1.674c-4.208-11.208-8.164-24.929-11.127-39.016l-0.342-1.944c-2.277-10.528-4.231-23.538-5.432-36.766l-0.097-1.327c-1.024-11.878-1.434-22.323-1.434-31.539-0.014-0.938-0.022-2.046-0.022-3.155 0-23.118 3.451-45.43 9.865-66.448l-0.423 1.61c6.381-20.463 17.1-37.994 31.144-52.239l-0.015 0.015c15.333-15.378 34.223-27.199 55.333-34.126l0.987-0.28c23.177-7.453 49.839-11.748 77.506-11.748 2.2 0 4.394 0.027 6.581 0.081l-0.324-0.006c0.461-0.002 1.007-0.003 1.553-0.003 12.797 0 25.438 0.671 37.888 1.979l-1.554-0.132c11.553 1.13 21.754 2.72 31.761 4.835l-1.86-0.329c7.914 1.432 14.795 3.277 21.441 5.62l-0.961-0.295c3.428 0.984 6.42 2.31 9.177 3.984l-0.165-0.093c1.092 0.751 1.985 1.71 2.64 2.826l0.022 0.041c0.592 1.060 1.083 2.288 1.411 3.58l0.023 0.106c0.061 0.644 0.096 1.393 0.096 2.15s-0.035 1.506-0.103 2.245l0.007-0.095c0 1.638 0 3.686 0 6.144-0.204 2.456-0.494 4.63-0.883 6.769l0.063-0.42c0.078 0.767 0.122 1.659 0.122 2.56s-0.044 1.793-0.131 2.671l0.009-0.111c-0.326 1.156-0.972 2.133-1.835 2.86l-0.009 0.007c-0.786 0.612-1.779 0.992-2.86 1.024h-0.007c-3.668-0.447-6.993-1.237-10.163-2.355l0.333 0.102c-4.71-1.638-10.854-3.072-18.637-4.915s-16.589-3.072-27.034-4.71c-10.224-1.435-22.035-2.255-34.037-2.255-0.346 0-0.691 0.001-1.037 0.002h0.053c-1.716-0.049-3.736-0.076-5.762-0.076-23.169 0-45.492 3.623-66.434 10.333l1.54-0.426c-17.522 5.781-32.493 15.204-44.64 27.437l-0.006 0.006c-10.743 11.563-18.826 25.748-23.18 41.482l-0.167 0.707c-4.298 15.494-6.768 33.287-6.768 51.656 0 0.704 0.004 1.407 0.011 2.109l-0.001-0.107c0 6.963 0 15.36 0 25.19 0.753 11.781 2.137 22.598 4.153 33.191l-0.262-1.652c2.35 13.685 5.265 25.475 8.924 36.933l-0.527-1.912c4.213 13.64 9.217 25.373 15.259 36.46l-0.513-1.029c6.681 12.445 14.088 23.184 22.526 33.010l-0.203-0.242c9.125 10.428 19.574 19.379 31.162 26.691l0.582 0.343c12.371 7.833 26.676 14.209 41.894 18.377l1.114 0.26c16.483 5.005 35.434 7.918 55.055 7.987h0.037c1.399 0.038 3.047 0.059 4.699 0.059 20.956 0 41.101-3.47 59.892-9.867l-1.308 0.387c16.025-5.464 29.73-14.088 40.97-25.2l-0.010 0.010c9.406-9.966 16.493-22.225 20.333-35.844l0.147-0.61c4.030-12.801 6.352-27.521 6.352-42.784 0-0.367-0.001-0.733-0.004-1.099v0.056c0-0.143 0-0.313 0-0.482 0-9.497-0.521-18.873-1.536-28.1l0.102 1.139c-0.961-10.718-2.408-20.299-4.383-29.687l0.287 1.63c-2.271-10.186-4.877-18.814-8.031-27.174l0.453 1.369c-2.41-8.562-5.838-16.050-10.233-22.855l0.198 0.327c-4.053-5.912-9.182-10.779-15.143-14.418l-0.217-0.123c-5.382-3.47-11.956-5.532-19.011-5.532-0.156 0-0.313 0.001-0.469 0.003h0.024c-0.924-0.119-1.993-0.187-3.078-0.187-8.749 0-16.465 4.424-21.032 11.157l-0.057 0.089c-2.568 5.858-4.063 12.686-4.063 19.863 0 5.037 0.736 9.901 2.106 14.492l-0.092-0.358 23.552 121.651c0.146 0.491 0.23 1.055 0.23 1.638s-0.084 1.148-0.241 1.68l0.011-0.042c-0.564 0.994-1.408 1.772-2.424 2.239l-0.033 0.014c-1.477 0.631-3.199 1.131-4.993 1.417l-0.127 0.017h-8.192c-0.719 0.054-1.557 0.084-2.402 0.084-4.057 0-7.948-0.706-11.558-2.002l0.239 0.075c-2.312-1.045-4.037-3.038-4.697-5.471l-0.014-0.059-4.506-23.347c-4.405 5.534-8.827 10.476-13.514 15.152l-0.003 0.003c-4.053 3.924-8.545 7.439-13.383 10.453l-0.339 0.197c-4.304 2.613-9.284 4.721-14.571 6.062l-0.379 0.082c-4.723 1.303-10.146 2.051-15.744 2.051-0.225 0-0.45-0.001-0.675-0.004h0.034c-0.51 0.012-1.111 0.018-1.714 0.018-12.161 0-23.686-2.725-33.997-7.597l0.485 0.206c-10.173-4.782-18.808-11.19-25.955-18.986l-0.055-0.061c-7.193-7.663-13.342-16.429-18.143-25.989l-0.289-0.635c-4.346-8.595-8.321-18.722-11.36-29.247l-0.314-1.268c-2.271-8.245-4.348-18.512-5.79-28.983l-0.15-1.328c-1.090-7.799-1.757-16.885-1.842-26.11l-0.001-0.104c-0.001-0.209-0.002-0.457-0.002-0.705 0-6.971 0.447-13.837 1.314-20.572l-0.084 0.797c0.884-6.572 2.462-12.514 4.686-18.13l-0.181 0.517c2.12-5.477 4.811-10.211 8.087-14.471l-0.1 0.135c3.176-4.21 6.974-7.748 11.297-10.546l0.171-0.104c4.47-2.877 9.666-5.133 15.216-6.482l0.349-0.072c5.483-1.452 11.778-2.286 18.268-2.286 0.778 0 1.553 0.012 2.325 0.036l-0.113-0.003c0.017 0 0.037 0 0.058 0 6.299 0 12.425 0.747 18.292 2.156l-0.532-0.108c7.071 1.701 13.281 4.091 19.068 7.173l-0.431-0.209c7.413 3.686 13.793 7.774 19.678 12.459l-0.222-0.171c7.525 5.772 14.207 11.676 20.461 18.003l0.019 0.019c1.193-6.5 3.553-12.283 6.87-17.386l-0.112 0.183c3.168-4.946 7.205-9.048 11.933-12.194l0.15-0.094c4.69-3.225 10.154-5.758 16.022-7.292l0.362-0.080c5.839-1.565 12.542-2.464 19.455-2.464 0.36 0 0.72 0.002 1.079 0.007l-0.054-0.001c12.753 0.352 24.742 3.258 35.592 8.221l-0.571-0.234c10.738 4.636 19.91 10.92 27.65 18.639l-0.002-0.002c7.921 7.976 14.731 17.070 20.167 27.023l0.313 0.625c5.033 9.47 9.562 20.541 12.983 32.087l0.329 1.295c3.013 10.343 5.53 22.774 7.056 35.509l0.112 1.15c1.376 10.946 2.193 23.674 2.253 36.58v0.079c0.017 0.916 0.027 1.995 0.027 3.077 0 20.924-3.687 40.987-10.448 59.575l0.385-1.212c-6.745 18.346-17.247 33.921-30.65 46.425l-0.070 0.064c-14.538 13.032-31.988 23.141-51.229 29.22l-0.995 0.271c-20.635 6.419-44.359 10.116-68.947 10.116-2.185 0-4.364-0.029-6.535-0.087l0.32 0.007zM529.203 366.080q-10.035-10.035-18.432-17.818c-4.698-4.271-9.848-8.249-15.303-11.799l-0.466-0.285c-4.067-2.708-8.734-5.060-13.682-6.823l-0.449-0.14c-3.837-1.374-8.265-2.194-12.876-2.253h-0.027c-0.771-0.080-1.665-0.126-2.571-0.126-8.674 0-16.363 4.212-21.135 10.703l-0.051 0.073c-4.394 7.767-6.984 17.058-6.984 26.953 0 0.533 0.008 1.063 0.022 1.592l-0.002-0.078c0.058 6.776 0.502 13.384 1.314 19.878l-0.085-0.832c1.076 8.504 2.511 15.937 4.376 23.199l-0.28-1.285c2.335 8.822 4.923 16.249 7.995 23.42l-0.418-1.097c3.13 7.428 6.908 13.837 11.412 19.654l-0.148-0.198c4.232 5.612 9.404 10.262 15.322 13.792l0.243 0.134c5.58 3.478 12.354 5.54 19.61 5.54 0.306 0 0.611-0.004 0.915-0.011l-0.045 0.001c0.541 0.028 1.173 0.044 1.81 0.044 8.719 0 16.732-3.027 23.043-8.088l-0.073 0.056c8.012-7.428 14.822-15.999 20.207-25.486l0.273-0.523z" />
<glyph unicode="&#xe915;" glyph-name="config-produto" horiz-adv-x="1027" d="M209.848 236.469v663.677c0.077 1.085 0.12 2.351 0.12 3.628 0 30.268-24.537 54.806-54.806 54.806s-54.806-24.537-54.806-54.806c0-1.276 0.044-2.543 0.129-3.797l-0.009 0.17v-663.437c-59.282-22.761-100.597-79.223-100.597-145.335 0-85.76 69.522-155.283 155.283-155.283s155.283 69.522 155.283 155.283c0 66.112-41.315 122.574-99.535 144.975l-1.063 0.359zM155.042 17.487c-0.071 0-0.156 0-0.24 0-40.889 0-74.036 33.147-74.036 74.036s33.147 74.036 74.036 74.036c40.889 0 74.036-33.147 74.036-74.036 0-0.084 0-0.169 0-0.253v0.013c0-40.756-33.039-73.795-73.795-73.795v0zM568.248 590.783v305.277c0 30.268-24.537 54.806-54.806 54.806s-54.806-24.537-54.806-54.806v0-305.277c-59.020-22.972-100.086-79.344-100.086-145.307s41.066-122.335 99.027-144.943l1.059-0.364v-305.277c0-30.268 24.537-54.806 54.806-54.806s54.806 24.537 54.806 54.806v0 305.277c59.020 22.972 100.086 79.344 100.086 145.307s-41.066 122.335-99.027 144.943l-1.059 0.364zM513.442 371.561c-0.071 0-0.156 0-0.24 0-40.889 0-74.036 33.147-74.036 74.036s33.147 74.036 74.036 74.036c40.889 0 74.035-33.147 74.036-74.035v0c0 0 0 0 0 0 0-40.804-33.010-73.899-73.782-74.035h-0.013zM871.842 960c-0.037 0-0.082 0-0.126 0-85.76 0-155.283-69.522-155.283-155.283 0-66.204 41.431-122.732 99.779-145.069l1.064-0.358v-663.437c-0.077-1.085-0.12-2.351-0.12-3.628 0-30.268 24.537-54.806 54.806-54.806s54.806 24.537 54.806 54.806c0 1.276-0.044 2.543-0.129 3.797l0.009-0.17v663.677c59.075 22.864 100.206 79.222 100.206 145.187 0 85.665-69.368 155.128-154.997 155.282h-0.015zM871.842 730.922c-0.071 0-0.156 0-0.24 0-40.889 0-74.036 33.147-74.036 74.036s33.147 74.036 74.036 74.036c40.889 0 74.036-33.147 74.036-74.036 0-0.084 0-0.169 0-0.253v0.013c-0.136-40.701-33.094-73.659-73.782-73.795h-0.013z" />
<glyph unicode="&#xe916;" glyph-name="edit1" d="M964.194 899.902c-37.014 37.31-88.307 60.407-144.994 60.407s-107.98-23.097-144.98-60.394l-572.694-572.694c-4.643-4.769-8.168-10.651-10.134-17.207l-0.077-0.297-89.855-323.246c-0.906-3.197-1.426-6.868-1.426-10.661 0-11.078 4.442-21.119 11.643-28.438l-0.005 0.005c7.328-7.047 17.304-11.387 28.293-11.387 0.31 0 0.618 0.003 0.926 0.010l-0.046-0.001c0.262-0.007 0.571-0.011 0.88-0.011 3.638 0 7.15 0.537 10.462 1.536l-0.256-0.066 322.954 91.606c14.272 3.887 25.286 14.901 29.107 28.885l0.067 0.288c0.773 2.949 1.217 6.334 1.217 9.823 0 11.081-4.477 21.117-11.721 28.397l-204.215 204.215 473.199 474.366 176.501-176.501-363.505-362.63c-7.242-7.242-11.722-17.247-11.722-28.299 0-22.103 17.918-40.020 40.020-40.020 11.051 0 21.056 4.479 28.299 11.722v0l432.064 430.605c37.222 37 60.26 88.233 60.26 144.848s-23.038 107.848-60.25 144.838l-0.010 0.010zM286.778 87.704l-189.046-53.972 52.805 190.505zM907.597 666.803l-11.961-11.961-176.501 176.793 11.67 11.67c22.611 22.648 53.868 36.658 88.397 36.658 68.985 0 124.909-55.923 124.909-124.909 0-34.456-13.951-65.654-36.514-88.252l0.002 0.002z" />
<glyph unicode="&#xe917;" glyph-name="elipse-back" d="M512 960c-282.77 0-512-229.23-512-512s229.23-512 512-512c282.77 0 512 229.23 512 512v0c0 282.77-229.23 512-512 512v0zM800.768 278.784c-59.915-101.106-168.271-167.949-292.28-168.448h-0.072c-62.269 0.233-120.522 17.222-170.545 46.688l1.585-0.864-6.656 4.608 32.512 56.832 8.192-4.608c24.555-14.597 53.145-25.634 83.582-31.478l1.666-0.266c15.231-2.683 32.921-4.349 50.952-4.605l0.248-0.003c1.511-0.030 3.292-0.048 5.078-0.048 149.161 0 270.080 120.919 270.080 270.080 0 133.778-97.264 244.838-224.932 266.323l-1.586 0.221c-14.631 2.939-31.45 4.62-48.662 4.62-0.892 0-1.784-0.005-2.674-0.014l0.136 0.001c-119.172-0.712-220.022-78.352-255.454-185.736l-0.546-1.912 57.856 57.6 47.616-47.616-152.064-151.808-151.808 151.808 47.616 47.616 76.8-76.8c30.969 156.833 167.405 273.469 331.083 273.469 186.204 0 337.152-150.948 337.152-337.152 0-62.041-16.757-120.167-45.993-170.101l0.862 1.592z" />
<glyph unicode="&#xe918;" glyph-name="elipse-no" d="M512 960c-282.77 0-512-229.23-512-512s229.23-512 512-512c282.77 0 512 229.23 512 512v0c0 282.77-229.23 512-512 512v0zM773.888 245.76c6.696-7.444 10.792-17.344 10.792-28.2 0-23.329-18.911-42.24-42.24-42.24-10.856 0-20.756 4.096-28.238 10.826l0.038-0.034-202.24 202.24-202.24-202.24c-7.64-7.618-18.182-12.328-29.824-12.328s-22.184 4.71-29.825 12.329l0.001-0.001c-7.618 7.64-12.328 18.182-12.328 29.824s4.71 22.184 12.329 29.825l202.239 202.239-202.24 202.24c-7.618 7.64-12.328 18.182-12.328 29.824s4.71 22.184 12.329 29.825l-0.001-0.001c7.64 7.618 18.182 12.328 29.824 12.328s22.184-4.71 29.825-12.329l202.239-202.239 202.24 202.24c7.444 6.696 17.344 10.792 28.2 10.792 23.329 0 42.24-18.911 42.24-42.24 0-10.856-4.096-20.756-10.826-28.238l0.034 0.038-202.24-202.24z" />
<glyph unicode="&#xe919;" glyph-name="elipse-yes" d="M512 960c-282.77 0-512-229.23-512-512s229.23-512 512-512c282.77 0 512 229.23 512 512v0c0 282.77-229.23 512-512 512v0zM814.336 581.376l-340.48-340.224c-7.204-7.422-16.711-12.573-27.365-14.298l-0.283-0.038c-3.058-0.764-6.582-1.227-10.205-1.28h-0.035c-0.089-0.001-0.194-0.001-0.299-0.001-14.319 0-27.265 5.878-36.557 15.353l-189.448 189.448c-9.666 9.326-15.669 22.394-15.669 36.864s6.002 27.538 15.653 36.849l0.015 0.015c9.551 9.174 22.548 14.824 36.864 14.824s27.313-5.65 36.882-14.841l-0.018 0.017 153.6-153.6 303.616 304.64c9.551 9.174 22.548 14.824 36.864 14.824s27.313-5.65 36.882-14.841l-0.018 0.017c9.352-9.472 15.128-22.493 15.128-36.864s-5.776-27.392-15.133-36.87l0.005 0.006z" />
<glyph unicode="&#xe91a;" glyph-name="entrega" horiz-adv-x="1037" d="M1017.426 132.456c-16.968 22.945-42.993 38.357-72.692 40.933l-0.379 0.027h-137.039c6.574 57.395 16.687 136.028 31.099 239.439l16.94 123.891 20.733 149.681c14.159 102.4 16.182 119.593 16.182 123.133 0.061 1.512 0.095 3.287 0.095 5.069 0 36.934-14.802 70.411-38.798 94.821l0.019-0.019c-26.106 31.146-65.027 50.81-108.541 50.81-2.91 0-5.799-0.088-8.665-0.261l0.394 0.019h-476.35c-41.844-3.427-78.758-22.149-105.617-50.494l-0.070-0.074c-28.333-22.398-47.265-55.609-50.533-93.303l-0.035-0.5c-3.034-35.398-12.895-101.389-26.042-195.698s-22.756-163.84-29.077-207.581c-32.616-217.442-49.051-346.896-49.051-384.569-0.387-2.916-0.608-6.287-0.608-9.71 0-43.009 34.866-77.875 77.875-77.875 3.423 0 6.794 0.221 10.1 0.649l-0.391-0.041h513.011c1.317-0.161 2.841-0.253 4.387-0.253 21.086 0 38.179 17.093 38.179 38.179s-17.093 38.179-38.179 38.179c-1.546 0-3.070-0.092-4.568-0.27l0.181 0.018h-518.827v6.068c0 22.503 16.182 148.67 48.798 375.214 4.804 42.73 14.159 112.514 28.065 207.581 14.159 98.86 23.261 165.104 28.065 202.272 2.403 18.308 11.699 34.084 25.15 44.902l0.133 0.104c14.009 14.956 33.631 24.507 55.486 25.28l0.138 0.004h469.776c0.928 0.038 2.017 0.060 3.111 0.060 21.772 0 41.536-8.6 56.079-22.588l-0.026 0.025c12.217-11.893 20.433-27.842 22.47-45.668l0.032-0.349c-2.781-10.114-12.136-67.002-56.13-381.029-45.511-325.152-50.568-371.168-50.568-374.708v-8.597c15.423-73.071 55.372-109.985 118.582-109.985l75.852 4.804c64.221 0 106.698 35.398 126.42 104.928 3.823 9.302 6.042 20.1 6.042 31.416 0 21.543-8.043 41.207-21.289 56.155l0.077-0.089zM955.228 59.639c-2.781-25.284-19.469-39.696-50.568-42.73h-75.852c-0.878-0.074-1.901-0.116-2.934-0.116-11.514 0-21.804 5.235-28.622 13.455l-0.050 0.061c-5.382 6.235-9.218 13.951-10.825 22.455l-0.047 0.3c4.049 11.898 7.901 26.681 10.779 41.809l0.346 2.185h144.119l12.895-9.102zM629.57 688.45c8.194 6.349 13.417 16.191 13.417 27.253 0 0.375-0.006 0.748-0.018 1.12l0.001-0.054c0.132 1.132 0.208 2.444 0.208 3.773 0 18.991-15.395 34.386-34.386 34.386-1.41 0-2.8-0.085-4.165-0.25l0.164 0.016h-344.367c-0.868 0.081-1.877 0.127-2.897 0.127-18.293 0-33.122-14.829-33.122-33.122 0-1.74 0.134-3.449 0.393-5.117l-0.024 0.186c-0.231-1.475-0.363-3.176-0.363-4.908 0-18.432 14.942-33.375 33.375-33.375 0.929 0 1.848 0.038 2.758 0.112l-0.119-0.008h344.367c9.538 0.421 18.147 4.083 24.827 9.902l-0.049-0.041zM243.232 622.965c-1.132 0.132-2.444 0.208-3.773 0.208-18.991 0-34.386-15.395-34.386-34.386 0-1.41 0.085-2.8 0.25-4.165l-0.016 0.164c-0.081-0.868-0.127-1.877-0.127-2.897 0-18.293 14.829-33.122 33.122-33.122 1.74 0 3.449 0.134 5.117 0.393l-0.186-0.024h237.163c1.475-0.231 3.176-0.363 4.908-0.363 18.432 0 33.375 14.942 33.375 33.375 0 0.929-0.038 1.848-0.112 2.758l0.008-0.119c0.151 1.21 0.237 2.609 0.237 4.030 0 18.991-15.395 34.386-34.386 34.386-1.42 0-2.82-0.086-4.195-0.253l0.165 0.016z" />
<glyph unicode="&#xe91b;" glyph-name="entrega_1" horiz-adv-x="751" d="M741.789 914.476c-2.544 16.454-12.431 30.174-26.145 37.899l-0.263 0.136c-7.676 4.575-16.928 7.28-26.812 7.28-6.65 0-13.014-1.224-18.879-3.46l0.364 0.122c-134.524-53.863-248.068-135.192-338.12-237.672l-0.849-0.985c-23.535-26.829-45.912-56.285-66.153-87.263l-1.837-2.997-221.512-85.53c-24.782-9.753-42.003-33.479-42.003-61.227 0-24.293 13.2-45.503 32.818-56.849l0.316-0.169 59.122-34.488c3.724-2.107 8.178-3.349 12.922-3.349 9.594 0 18.002 5.078 22.682 12.693l0.066 0.115c2.256 3.774 3.59 8.324 3.59 13.186 0 2.318-0.303 4.564-0.872 6.703l0.041-0.182c-1.816 7.006-6.129 12.795-11.911 16.488l-0.111 0.066-59.122 34.488c-3.947 2.183-6.575 6.322-6.575 11.074 0 0.473 0.026 0.939 0.077 1.399l-0.005-0.057c0.251 5.165 3.479 9.517 7.994 11.399l0.086 0.032 159.63 61.881c-27.724-52.294-51.1-113.003-66.999-176.672l-1.189-5.622-5.912-23.846c-1.183-5.793-1.861-12.452-1.861-19.27 0-38.027 21.077-71.131 52.186-88.267l0.52-0.263 160.419-92.625c15.181-9.327 33.569-14.852 53.246-14.852 25.277 0 48.424 9.116 66.334 24.24l-0.153-0.126 16.357 15.766c46.238 44.108 87.121 93.131 122.021 146.425l1.939 3.155 25.817-166.528c0.136-0.695 0.214-1.494 0.214-2.311 0-4.489-2.345-8.43-5.877-10.665l-0.052-0.031c-1.994-1.343-4.451-2.144-7.095-2.144s-5.1 0.801-7.141 2.173l0.046-0.029-59.122 34.291c-3.74 2.155-8.226 3.426-13.008 3.426-2.382 0-4.689-0.315-6.884-0.906l0.185 0.042c-6.889-1.801-12.525-6.215-15.897-12.094l-0.066-0.125c-2.172-3.718-3.454-8.186-3.454-12.953 0-2.402 0.326-4.729 0.935-6.937l-0.043 0.183c1.805-6.83 6.223-12.405 12.092-15.7l0.127-0.066 59.122-34.488c9.581-5.758 21.144-9.163 33.501-9.163 36.353 0 65.823 29.47 65.823 65.823 0 3.583-0.286 7.098-0.837 10.525l0.050-0.377-35.868 230.577c10.248 19.707 19.707 38.232 25.817 55.181s13.598 34.094 19.707 52.028v0c29.262 83.877 46.163 180.565 46.163 281.2 0 45.98-3.528 91.136-10.329 135.211l0.625-4.919zM655.865 520.326c-5.518-16.16-11.627-32.517-18.328-48.677-43.283-101.94-104.005-188.629-179.219-260.234l-0.316-0.299-16.357-15.766c-8.156-6.325-18.535-10.14-29.805-10.14-10.204 0-19.678 3.127-27.515 8.475l0.169-0.109-160.419 92.625c-16.415 8-27.526 24.562-27.526 43.718 0 2.515 0.192 4.985 0.561 7.397l-0.034-0.27 5.715 23.452c30.839 125.388 89.012 234.312 168.066 324.469l-0.749-0.872c85.274 96.894 191.75 173.054 312.339 221.516l5.542 1.967 2.168-1.182c5.826-36.807 9.155-79.251 9.155-122.472 0-94.485-15.907-185.255-45.19-269.777l1.744 5.785zM543.729 654.928v0c-13.365 7.67-29.382 12.193-46.456 12.193-52.244 0-94.596-42.352-94.596-94.596 0-8.538 1.131-16.812 3.252-24.68l-0.152 0.662c11.319-40.566 47.821-69.88 91.214-70.158h0.032c8.779 0.038 17.257 1.259 25.304 3.51l-0.67-0.16c40.678 11.185 70.066 47.841 70.066 91.36 0 34.791-18.782 65.196-46.76 81.627l-0.445 0.241zM532.102 551.858v0c-7.432-12.677-20.99-21.054-36.505-21.054-19.426 0-35.784 13.134-40.679 31.006l-0.069 0.296c-0.965 3.324-1.521 7.142-1.521 11.089 0 7.681 2.103 14.872 5.764 21.026l-0.104-0.19c7.392 12.843 21.040 21.351 36.675 21.351 19.462 0 35.846-13.183 40.707-31.107l0.068-0.295c0.93-3.28 1.465-7.047 1.465-10.939 0-7.815-2.156-15.126-5.905-21.372l0.105 0.188zM251.073 112.579c-1.805 6.83-6.223 12.405-12.092 15.7l-0.127 0.066c-3.786 2.247-8.346 3.576-13.216 3.576-2.306 0-4.543-0.298-6.674-0.857l0.183 0.041c-6.763-1.951-12.289-6.323-15.698-12.095l-0.068-0.124-82.968-144.259c-2.252-3.754-3.584-8.283-3.584-13.124 0-9.64 5.284-18.046 13.113-22.48l0.128-0.067c3.686-2.229 8.139-3.548 12.899-3.548 0.038 0 0.076 0 0.113 0h-0.006c0.006 0 0.014 0 0.021 0 9.611 0 18.013 5.172 22.576 12.885l0.067 0.122 82.771 144.456c2.138 3.762 3.399 8.265 3.399 13.063 0 2.361-0.305 4.65-0.878 6.831l0.042-0.187zM143.273 45.771l46.313 80.406c2.208 3.673 3.514 8.105 3.514 12.843 0 2.444-0.348 4.808-0.996 7.043l0.044-0.178c-1.802 6.782-6.134 12.335-11.9 15.7l-0.122 0.066c-3.777 2.26-8.331 3.597-13.198 3.597-9.678 0-18.121-5.285-22.602-13.126l-0.067-0.128-45.721-80.012c-2.247-3.786-3.576-8.346-3.576-13.216 0-2.306 0.298-4.543 0.857-6.674l-0.041 0.183c3.043-11.328 13.153-19.557 25.209-19.707h0.017c9.491 0.224 17.719 5.422 22.202 13.079l0.067 0.125zM298.568 92.871c-3.786 2.247-8.346 3.576-13.216 3.576-2.306 0-4.543-0.298-6.674-0.857l0.183 0.041c-6.763-1.951-12.289-6.323-15.698-12.095l-0.068-0.124-46.313-79.815c-2.171-3.751-3.452-8.253-3.452-13.053 0-9.684 5.213-18.151 12.985-22.747l0.123-0.067c3.742-2.155 8.213-3.46 12.982-3.547h0.025c9.644 0.078 18.047 5.313 22.596 13.079l0.067 0.125 46.51 80.406c2.138 3.762 3.399 8.265 3.399 13.063 0 2.361-0.305 4.65-0.878 6.831l0.042-0.187c-1.993 6.732-6.533 12.17-12.475 15.306l-0.138 0.066z" />
<glyph unicode="&#xe91c;" glyph-name="exclude" d="M1001.256 70.217c14.264-14.264 23.087-33.97 23.087-55.736 0-43.533-35.29-78.823-78.823-78.823-21.766 0-41.472 8.823-55.736 23.087v0l-377.658 377.908-377.908-377.908c-14.269-14.152-33.919-22.898-55.611-22.898s-41.343 8.745-55.617 22.903l0.005-0.005c-14.226 14.282-23.022 33.982-23.022 55.736s8.795 41.455 23.024 55.739l-0.002-0.002 376.908 377.658-376.908 377.908c-14.272 14.214-23.104 33.881-23.104 55.611s8.832 41.398 23.101 55.609l0.003 0.003c14.214 14.272 33.881 23.104 55.611 23.104s41.398-8.832 55.609-23.101l0.003-0.003 377.908-376.908 377.658 376.908c14.254 14.286 33.963 23.123 55.736 23.123 43.484 0 78.735-35.251 78.735-78.735 0-21.711-8.788-41.369-23-55.613l-377.907-377.907z" />
<glyph unicode="&#xe91d;" glyph-name="excluir" d="M792.487 839.346h-144.473c-6.139 36.183-24.942 67.152-51.602 88.834l-0.266 0.21c-23.62 19.662-54.277 31.596-87.722 31.596-6.116 0-12.139-0.399-18.045-1.173l0.695 0.074c-63.408-8.15-113.415-56.721-123.657-118.708l-0.114-0.833h-145.141c-67.612-1.127-121.99-56.202-121.99-123.977 0-0.084 0-0.168 0-0.252v0.013-6.010c-0.003-0.298-0.004-0.65-0.004-1.002 0-49.35 28.676-92.003 70.275-112.203l0.741-0.325v-537.823c-0.005-0.401-0.007-0.874-0.007-1.348 0-67.733 54.408-122.758 121.903-123.757l0.094-0.001h428.522c67.614 1.124 121.995 56.2 121.995 123.977 0 0.397-0.002 0.793-0.006 1.19v-0.060 536.932c42.357 20.71 71.014 63.482 71.014 112.948 0 0.205 0 0.41-0.001 0.615v-0.032 6.901c-0.114 67.856-54.522 122.966-122.095 124.214l-0.117 0.002zM442.323 839.346c9.915 26.885 35.316 45.71 65.113 45.71s55.198-18.825 64.958-45.23l0.155-0.479zM173.19 715.13c0.247 27.116 22.1 49.046 49.161 49.419h570.136c27.097-0.373 48.949-22.304 49.196-49.395v-6.034c0.001-0.135 0.002-0.294 0.002-0.453 0-27.35-21.921-49.58-49.152-50.078l-0.047-0.001h-570.101c-27.277 0.499-49.199 22.729-49.199 50.079 0 0.159 0.001 0.318 0.002 0.477v-0.024zM243.979 584.014h526.915v-525.357c0-0.068 0.001-0.149 0.001-0.231 0-27.349-21.92-49.579-49.15-50.078l-0.047-0.001h-428.299c-27.4 0.5-49.419 22.83-49.419 50.302 0 0.003 0 0.005 0 0.008v0zM328.348 94.497c0-0.069-0.001-0.151-0.001-0.233 0-20.219 16.141-36.668 36.24-37.164l0.046-0.001c20.314 0.125 36.733 16.621 36.733 36.952 0 0.157-0.001 0.313-0.003 0.47v-0.024 306.087c0.39 2.010 0.614 4.322 0.614 6.685 0 20.286-16.445 36.73-36.73 36.73-19.583 0-35.587-15.326-36.672-34.638l-0.004-0.096c-0.107-1.134-0.169-2.452-0.169-3.784s0.061-2.65 0.181-3.951l-0.012 0.167zM471.040 94.497c0-0.069-0.001-0.151-0.001-0.233 0-20.219 16.141-36.668 36.24-37.164l0.046-0.001c20.314 0.125 36.733 16.621 36.733 36.952 0 0.157-0.001 0.313-0.003 0.47v-0.024 306.087c0.161 1.307 0.253 2.819 0.253 4.353 0 18.982-14.059 34.681-32.332 37.252l-0.199 0.023c-1.127 0.122-2.435 0.192-3.759 0.192-19.065 0-34.758-14.437-36.741-32.975l-0.014-0.162c-0.153-1.136-0.241-2.45-0.241-3.784s0.088-2.648 0.257-3.936l-0.016 0.151zM613.955 94.497c0-0.071-0.001-0.155-0.001-0.239 0-20.14 16.016-36.54 36.007-37.158l0.057-0.001c20.217 0.25 36.511 16.697 36.511 36.95 0 0.157-0.001 0.315-0.003 0.472v-0.024 306.087c0.39 2.010 0.614 4.322 0.614 6.685 0 20.286-16.445 36.73-36.73 36.73-19.583 0-35.587-15.326-36.672-34.638l-0.004-0.096c-0.107-1.134-0.169-2.452-0.169-3.784s0.061-2.65 0.181-3.951l-0.012 0.167z" />
<glyph unicode="&#xe91e;" glyph-name="fontdown" d="M803.137 769.255c-0.239 0.001-0.521 0.001-0.803 0.001-125.86 0-227.89-102.030-227.89-227.89s102.030-227.89 227.89-227.89c125.86 0 227.89 102.029 227.89 227.889v0c-0.113 125.533-101.618 227.32-227.033 227.89h-0.054zM803.137 359.856c-99.801 0-180.706 80.905-180.706 180.706s80.905 180.706 180.706 180.706c99.801 0 180.706-80.905 180.706-180.706v0c0-99.801-80.905-180.706-180.706-180.706v0zM916.58 571.482h-228.493c-16.634 0-30.118-13.484-30.118-30.118s13.484-30.118 30.118-30.118v0h228.493c16.634 0 30.118 13.484 30.118 30.118s-13.484 30.118-30.118 30.118v0zM244.756 769.255l-244.756-642.51h136.935l42.365 120.471h256l43.771-120.471h148.179l-251.784 642.51zM216.847 356.643l54.613 153.399q22.287 62.845 33.933 111.034h1.807c1.405-2.61 5.622-16.464 12.85-41.562s14.256-48.188 22.086-69.471l54.613-153.399z" />
<glyph unicode="&#xe91f;" glyph-name="fonteup" d="M235.52 757.132l-235.52-618.264h131.768l40.767 115.925h246.34l42.119-115.925h142.587l-242.282 618.264zM208.664 360.091l52.552 147.611q21.446 60.474 32.652 106.844h1.739c1.352-2.512 5.41-15.843 12.365-39.994s13.718-46.37 21.253-66.85l52.552-147.611zM905.757 565.084h-74.965v75.158c0 15.045-12.197 27.242-27.242 27.242s-27.242-12.197-27.242-27.242v0-75.158h-75.351c-15.045 0-27.242-12.197-27.242-27.242s12.197-27.242 27.242-27.242v0h75.158v-75.158c0-15.045 12.197-27.242 27.242-27.242s27.242 12.197 27.242 27.242v0 75.158h75.158c15.045 0 27.242 12.197 27.242 27.242s-12.197 27.242-27.242 27.242v0zM803.357 757.132c-121.111 0-219.291-98.18-219.291-219.291s98.18-219.291 219.291-219.291c121.111 0 219.291 98.18 219.291 219.291v0c-0.11 121.067-98.224 219.181-219.28 219.291h-0.011zM803.357 363.182c-96.035 0-173.887 77.852-173.887 173.887s77.852 173.887 173.887 173.887c96.035 0 173.887-77.852 173.887-173.887v0c-0.652-95.772-78.115-173.234-173.824-173.886h-0.062z" />
<glyph unicode="&#xe920;" glyph-name="institucional" d="M511.489 960c-282.487 0-511.489-229.001-511.489-511.489s229.001-511.489 511.489-511.489c282.487 0 511.489 229.001 511.489 511.489v0c0 282.487-229.001 511.489-511.489 511.489v0zM961.598 483.906h-102.298c-8.593 150.787-63.425 282.546-143.217 366.226 137.284-70.551 232.495-205.947 245.409-364.621l0.105-1.605zM801.605 483.906h-88.181c-3.887 133.396-28.234 252.675-65.88 337.173 84.089-65.675 143.421-191.092 153.037-337.173zM508.215 853.406c70.381 0 128.486-161.835 135.647-369.499h-271.294c6.956 207.664 65.061 369.499 135.647 369.499zM378.501 825.581c-38.669-84.702-64.038-205.823-67.926-341.674h-91.454c9.821 148.741 72.018 276.818 159.38 341.674zM301.164 846.040c-78.155-84.089-131.146-213.393-139.534-362.134h-98.206c12.866 157.157 104.71 290.299 235.349 360.751l2.391 1.179zM63.425 412.298h98.001c5.729-140.148 50.944-265.974 120.302-351.086-122.494 73.913-206.098 201.571-218.197 349.474l-0.106 1.611zM218.303 412.298h92.068c4.092-145.877 33.144-274.567 76.723-359.679-94.114 64.243-162.040 199.685-168.791 359.679zM508.215 28.273c-72.222 0-131.146 169.405-136.056 384.026h271.907c-4.91-214.621-63.834-384.026-135.851-384.026zM639.361 57.325c42.147 85.112 69.972 211.961 74.064 354.973h87.976c-7.365-156.106-71.404-288.889-162.040-354.973zM734.293 57.325c71.404 86.135 118.052 212.984 122.757 355.587h102.298c-12.032-152.665-98.58-282.772-222.905-355.047l-2.15-1.154z" />
<glyph unicode="&#xe921;" glyph-name="load" horiz-adv-x="1030" d="M120.39 304.239c-19.308 42.872-30.556 92.937-30.556 145.63 0 0.505 0.001 1.010 0.003 1.515v-0.078c-0.024 1.654-0.038 3.607-0.038 5.564 0 114.72 47.624 218.317 124.18 292.1l0.125 0.12c75.031 76.195 179.31 123.403 294.615 123.403 2.237 0 4.469-0.018 6.697-0.053l-0.337 0.004c0.617 0.003 1.346 0.005 2.076 0.005 90.253 0 173.803-28.701 242.019-77.475l-1.263 0.858c-16.654-5.136-28.546-20.39-28.546-38.422 0-1.647 0.099-3.27 0.292-4.864l-0.019 0.192c-0.248-1.676-0.389-3.61-0.389-5.577 0-22.163 17.967-40.13 40.13-40.13 1.020 0 2.030 0.038 3.031 0.113l-0.133-0.008h98.501c1.377-0.163 2.972-0.256 4.588-0.256 22.793 0 41.27 18.477 41.27 41.27 0 1.616-0.093 3.211-0.274 4.779l0.018-0.191v108.99c-1.090 12.17-7.145 22.741-16.098 29.801l-0.091 0.069c-6.941 9.091-17.784 14.898-29.984 14.898s-23.043-5.806-29.917-14.806l-0.067-0.091c-7.641-7.542-12.521-17.865-12.994-29.326l-0.003-0.087v-3.648c-85.058 63.385-192.214 101.48-308.267 101.48-1.365 0-2.728-0.005-4.090-0.016l0.209 0.001c-2.010 0.029-4.382 0.045-6.758 0.045-139.389 0-265.542-56.673-356.673-148.234l-0.019-0.019c-93.516-88.958-151.681-214.328-151.681-353.283 0-2.533 0.019-5.061 0.058-7.584l-0.005 0.381c-0.005-0.813-0.008-1.775-0.008-2.738 0-62.181 12.231-121.506 34.419-175.698l-1.121 3.095 1.368-2.736c8.385-15.061 24.21-25.081 42.376-25.081 0.012 0 0.024 0 0.036 0h17.099c13.641 3.568 24.584 12.94 30.209 25.252l0.117 0.285c1.23 3.359 1.941 7.236 1.941 11.28 0 7.213-2.263 13.897-6.117 19.381l0.072-0.108zM997.551 624.823v0c-3.629 13.549-12.987 24.401-25.251 29.981l-0.286 0.116c-3.691 1.397-7.958 2.206-12.414 2.206-6.87 0-13.291-1.923-18.754-5.26l0.158 0.090c-12.933-3.342-23.348-12.114-28.844-23.676l-0.113-0.265c-1.041-3.225-1.641-6.935-1.641-10.785 0-6.972 1.968-13.485 5.379-19.012l-0.090 0.156c12.752-42.486 20.092-91.308 20.092-141.844 0-1.836-0.010-3.67-0.029-5.502l0.002 0.279c0.019-1.474 0.030-3.214 0.030-4.956 0-115.624-47.575-220.137-124.217-295.030l-0.079-0.077c-75.127-77.814-180.365-126.133-296.889-126.133-2.078 0-4.153 0.015-6.223 0.046l0.313-0.004c-0.793-0.006-1.731-0.009-2.67-0.009-89.608 0-172.508 28.717-240 77.45l1.206-0.829c17.362 6.237 29.555 22.559 29.555 41.728 0 24.43-19.804 44.234-44.234 44.234-0.13 0-0.26-0.001-0.39-0.002h-92.553c-1.606 0.226-3.461 0.356-5.346 0.356-22.289 0-40.358-18.069-40.358-40.358 0-1.008 0.037-2.007 0.11-2.996l-0.008 0.132v-104.657c-0.163-1.377-0.256-2.972-0.256-4.588 0-22.793 18.477-41.27 41.27-41.27 1.616 0 3.211 0.093 4.779 0.274l-0.191-0.018c0.857-0.065 1.856-0.102 2.864-0.102 22.289 0 40.358 18.069 40.358 40.358 0 1.885-0.129 3.74-0.379 5.557l0.024-0.211v1.14c82.562-66.109 188.539-106.092 303.854-106.092 2.836 0 5.667 0.024 8.492 0.072l-0.425-0.006c2.015-0.029 4.394-0.046 6.777-0.046 140.443 0 267.32 58.086 357.917 151.545l0.125 0.129c93.319 90.648 151.225 217.316 151.225 357.51 0 2.57-0.019 5.135-0.058 7.696l0.005-0.387c-6.155 64.318-17.747 123.127-34.525 179.707l1.691-6.646z" />
<glyph unicode="&#xe922;" glyph-name="lock2" d="M800 554.667h-54.613v173.013c0 0.127 0 0.277 0 0.427 0 128.071-103.822 231.893-231.893 231.893-0.075 0-0.151 0-0.226 0h0.012c-128.209-0.242-232.077-104.111-232.32-232.296v-173.037h-55.040c-47.991-0.119-86.891-38.87-87.253-86.792v-440.354c0-48.189 39.065-87.253 87.253-87.253v0h574.080c48.097 0.121 87.040 39.139 87.040 87.253 0 0 0 0 0 0v0 440.32c-0.242 47.93-39.093 86.706-87.028 86.827h-0.012zM586.667 232.32v-69.333c0-40.766-33.047-73.813-73.813-73.813s-73.813 33.047-73.813 73.813v0 69.333c-15.744 17.537-25.428 40.795-25.6 66.311v0.035c0 0 0 0 0 0 0 55.183 44.674 99.932 99.828 100.053h0.012c54.611-0.842 98.558-45.31 98.558-100.042 0-25.508-9.546-48.787-25.26-66.459l0.089 0.102zM666.027 554.667h-305.493v172.8c-0.003 0.349-0.005 0.761-0.005 1.173 0 84.362 68.389 152.751 152.751 152.751 83.95 0 152.082-67.722 152.746-151.515v-0.063z" />
<glyph unicode="&#xe923;" glyph-name="confirma" horiz-adv-x="1030" d="M512 960c-282.77 0-512-229.23-512-512s229.23-512 512-512v0c0.414-0.001 0.904-0.002 1.394-0.002 65.29 0 127.618 12.679 184.656 35.71l-3.313-1.182c21.72 7.869 40.483 17.457 57.808 29.028l-0.966-0.607c9.207 5.052 15.344 14.679 15.344 25.741 0 16.162-13.102 29.263-29.263 29.263-5.334 0-10.336-1.427-14.642-3.921l0.141 0.075c-14.717-9.324-31.699-17.075-49.73-22.377l-1.428-0.36c-46.363-21.542-100.64-34.108-157.851-34.108-0.534 0-1.067 0.001-1.6 0.003h0.083c-0.187 0-0.409 0-0.631 0-251.377 0-455.158 203.781-455.158 455.158s203.781 455.158 455.158 455.158c251.377 0 455.158-203.781 455.158-455.158 0-0.148 0-0.295 0-0.443v0.023c-0.709-57.323-11.065-112.007-29.513-162.808l1.092 3.44c-5.684-17.053-17.053-39.789-22.737-56.842-1.088-3.361-1.716-7.228-1.716-11.242 0-11.389 5.052-21.597 13.037-28.507l0.048-0.040c3.361-1.088 7.228-1.716 11.242-1.716 11.389 0 21.597 5.052 28.507 13.037l0.040 0.048c12.243 18.115 21.986 39.15 28.081 61.684l0.34 1.474c21.279 52.236 33.773 112.823 34.105 176.287l0.001 0.134c-1.429 285.205-232.428 515.982-517.581 517.052h-0.103zM705.474 613.053l-267.368-267.579c-1.982-2.571-5.063-4.211-8.526-4.211s-6.544 1.64-8.508 4.186l-0.019 0.025-102.526 108.211c-4.914 4.263-11.374 6.861-18.44 6.861-15.58 0-28.211-12.63-28.211-28.211 0-7.066 2.598-13.525 6.891-18.475l-0.030 0.035 142.316-142.316c1.982-2.571 5.063-4.211 8.526-4.211s6.544 1.64 8.508 4.186l0.019 0.025 307.158 307.158c5.241 5.061 8.496 12.151 8.496 20s-3.254 14.939-8.487 19.992l-0.008 0.008c-4.61 2.396-10.067 3.802-15.851 3.802-9.272 0-17.7-3.611-23.956-9.502l0.018 0.016z" />
<glyph unicode="&#xe924;" glyph-name="nosave" d="M1020.099 559.665c-49.796 191.743-221.334 331.030-425.404 331.030-215.209 0-394.238-154.908-431.665-359.304l-0.409-2.69-100.45 100.206-62.171-62.171 198.217-197.973 198.217 197.973-62.171 62.171-75.337-75.337c47.256 142.577 179.3 243.643 334.974 243.81h0.020c0.997 0.011 2.176 0.017 3.355 0.017 22.094 0 43.69-2.136 64.591-6.212l-2.118 0.344c162.041-33.746 282.044-175.373 282.044-345.028 0-192.622-154.693-349.114-346.624-352.020l-0.274-0.003c-23.29 0.168-45.962 2.29-68.013 6.209l2.429-0.358c-41.958 8.017-79.322 22.424-113.049 42.337l1.628-0.889-10.484 6.095-44.13-76.069 10.484-6.095c62.908-37.143 138.562-59.199 219.346-59.489h0.083c0.118 0 0.257 0 0.396 0 243.182 0 440.32 197.138 440.32 440.32 0 40.226-5.394 79.193-15.499 116.216l0.718-3.088z" />
<glyph unicode="&#xe925;" glyph-name="oferta" d="M148.837 441.57h-120.975c-18.575 0-27.862-10.24-27.862-30.244s9.287-30.244 27.862-30.244h91.207v-369.831h-91.207c-18.575 0-27.862-10.002-27.862-30.244-0.269-1.345-0.424-2.89-0.424-4.472 0-13.152 10.662-23.814 23.814-23.814 1.582 0 3.127 0.154 4.623 0.448l-0.151-0.025h120.975c0.061-0.001 0.132-0.001 0.204-0.001 7.869 0 14.897 3.601 19.526 9.244l0.035 0.044c4.748 4.799 7.78 11.305 8.095 18.516l0.002 0.059v430.318c0 20.004-10.002 30.244-27.862 30.244zM69.775 83.408c0 20.242-9.287 30.244-27.862 30.244-16.703 0-30.244-13.541-30.244-30.244s13.541-30.244 30.244-30.244v0c18.575 0 27.862 10.002 27.862 30.244zM245.522 327.501h104.067c12.429-0.253 23.727-4.897 32.452-12.438l-0.065 0.055c4.838-4.368 10.418-8.041 16.504-10.791l0.403-0.163c93.827-55.010 120.26-88.35 155.743-83.825h11.669c59.059 0 95.256-3.81 106.925-11.669 3.096-4.525 10.716-5.239 18.813-6.906s14.050-5.239 21.909 7.144c2.286 4.681 3.623 10.185 3.623 16.001 0 10.082-4.016 19.226-10.536 25.92l0.008-0.008q-39.769 32.625-142.884 23.814h-11.669q-23.814-4.525-113.831 65.012c-18.384 15.293-40.14 27.273-63.921 34.651l-1.33 0.355h-129.31c-20.004 0-30.244-9.287-30.244-27.862s11.431-19.289 31.673-19.289zM697.749 364.413c1.79-0.041 3.899-0.065 6.013-0.065 78.171 0 148.868 32.001 199.705 83.616l0.034 0.035c52.489 51.033 85.056 122.32 85.056 201.214 0 1.68-0.015 3.356-0.044 5.028l0.003-0.251c0.020 1.259 0.032 2.745 0.032 4.234 0 79.361-32.54 151.122-85.006 202.668l-0.042 0.041c-50.901 53.738-122.763 87.179-202.435 87.179-1.167 0-2.331-0.007-3.495-0.021l0.177 0.002c-1.104 0.016-2.408 0.024-3.713 0.024-79.7 0-151.708-32.929-203.163-85.923l-0.067-0.069c-53.061-51.373-85.998-123.256-85.998-202.832 0-1.445 0.011-2.888 0.033-4.329l-0.003 0.218c-0.039-1.738-0.061-3.786-0.061-5.839 0-79.115 32.974-150.528 85.929-201.246l0.1-0.096c51.707-51.672 123.121-83.63 201.998-83.63 1.739 0 3.473 0.016 5.205 0.046l-0.26-0.004zM523.907 831.405c43.258 44.122 103.482 71.471 170.095 71.471 1.318 0 2.633-0.011 3.945-0.032l-0.198 0.003c0.691 0.007 1.507 0.011 2.324 0.011 66.383 0 126.377-27.353 169.327-71.404l0.048-0.050c44.969-43.156 72.911-103.757 72.911-170.885 0-1.542-0.015-3.080-0.044-4.615l0.003 0.23c0.023-1.23 0.036-2.68 0.036-4.133 0-66.866-27.34-127.347-71.451-170.873l-0.026-0.026c-42.556-44.118-102.191-71.515-168.225-71.515-2.059 0-4.112 0.027-6.158 0.080l0.303-0.006c-2.056-0.064-4.473-0.101-6.899-0.101-66.458 0-126.52 27.388-169.514 71.492l-0.049 0.050c-43.441 43.547-70.303 103.651-70.303 170.029 0 1.759 0.019 3.515 0.056 5.265l-0.004-0.261c-0.021 1.159-0.032 2.526-0.032 3.896 0 67.458 28.332 128.299 73.746 171.272l0.11 0.103zM988.279 278.683c-7.919 3.791-17.214 6.005-27.026 6.005-16.245 0-31.072-6.069-42.338-16.064l0.066 0.058c-5.24-0.542-10.007-2.154-14.217-4.615l0.167 0.090c-6.192-3.096-14.765-7.859-25.481-14.050s-20.956-11.669-30.244-16.193c-50.791-33.035-109.587-64.875-170.919-92.031l-8.161-3.225c-13.145-1.608-28.363-2.525-43.795-2.525-23.999 0-47.479 2.219-70.248 6.462l2.356-0.365c-45.335 4.098-86.553 11.167-126.597 21.196l5.622-1.192c-21.671 4.763-33.578 15.479-39.769-1.667-6.192-21.671 0-35.721 18.575-41.913 38.85-12.78 84.001-21.835 130.696-25.363l1.948-0.118c20.126-3.648 43.289-5.733 66.94-5.733 28.151 0 55.612 2.955 82.090 8.572l-2.574-0.457c4.525 1.429 66.679 33.34 185.987 95.256 7.179 5.039 15.44 10.022 24.038 14.44l1.205 0.562c5.266 4.642 11.108 8.892 17.329 12.569l0.532 0.291c28.815 16.67 59.059 18.099 67.632 3.572s-1.429-28.339-18.099-43.341c-21.736-19.233-45.797-36.927-71.381-52.349l-2.204-1.232c-41.674-27.148-96.923-58.582-165.031-95.256-32.468-16.663-70.84-26.429-111.492-26.429-6.606 0-13.151 0.258-19.627 0.764l0.857-0.054c-44.501 2.572-86.156 11.090-125.379 24.791l3.214-0.977c-39.344 12.819-73.051 27.656-104.947 45.357l3.024-1.54c-12.757 8.056-27.688 16.015-43.199 22.907l-2.286 0.907c-11.173 5.164-24.137 8.863-37.75 10.423l-0.59 0.055c-10.716 0-20.004 0-27.862 0-0.251 0.002-0.549 0.004-0.846 0.004-7.124 0-14.066-0.782-20.744-2.265l0.633 0.118-9.287-2.381c-17.146-7.859-21.671-15.003-12.383-30.482q7.144-30.482 35.007-18.575 0 4.525 9.287 5.715c0.538 0.014 1.17 0.022 1.805 0.022 10.268 0 20.043-2.11 28.916-5.92l-0.477 0.182c16.83-6.172 31.397-14.217 44.479-24.121l-0.423 0.307c70.65-46.35 156.941-74.418 249.704-75.725l0.342-0.004c2.848-0.11 6.192-0.172 9.551-0.172 53.545 0 103.381 15.878 145.058 43.181l-1.009-0.62c77.991 37.734 143.042 74.907 205.383 115.867l-6.775-4.179c29.754 17.67 55.41 38.021 78.017 61.344l0.092 0.096c5.834 9.448 9.291 20.9 9.291 33.16 0 0.231-0.001 0.461-0.004 0.691v-0.035c0 0.010 0 0.021 0 0.033 0 33.050-18.753 61.719-46.2 75.948l-0.476 0.224zM690.605 593.741c-18.321 0.316-35.368 5.497-49.984 14.302l0.451-0.252-8.573-30.006c14.801-8.497 32.501-13.593 51.374-13.812l0.064-0.001v-31.196h26.195v32.863c29.579 2.37 52.79 26.572 53.58 56.362l0.002 0.077c0 28.577-15.717 45.485-51.2 58.82-27.386 10.716-38.579 18.337-38.579 31.434s8.335 21.433 30.482 21.433c15.799-0.053 30.64-4.104 43.579-11.193l-0.476 0.239 8.573 29.053c-12.65 6.704-27.647 10.662-43.562 10.716h-0.017v30.244h-26.195v-30.958c-28.294-2.479-50.427-25.684-51.198-54.22l-0.002-0.076c0-29.291 21.909-44.77 55.248-56.677 23.814-8.811 34.53-17.622 34.53-32.149s-13.574-25.005-34.292-25.005z" />
<glyph unicode="&#xe926;" glyph-name="ofertas" d="M855.609 891.733c0 37.703-30.564 68.267-68.267 68.267v0h-548.409c-37.703 0-68.267-30.564-68.267-68.267v0-805.319c0.129-87.041 70.655-157.567 157.684-157.696h369.562c86.989 0.258 157.438 70.707 157.696 157.671v0.025zM697.913-15.303h-369.55c-56.177 0-101.717 45.54-101.717 101.717v0 805.319c-0.014 0.21-0.021 0.456-0.021 0.704 0 6.409 5.196 11.605 11.605 11.605 0.248 0 0.494-0.008 0.737-0.023l-0.033 0.002h549.092c6.409 0 11.605-5.196 11.605-11.605v0-806.002c-0.129-56.125-45.593-101.588-101.705-101.717h-0.012zM695.865 780.914c-1.81 0.22-3.905 0.346-6.030 0.346s-4.22-0.126-6.28-0.37l0.249 0.024h-341.333c-1.776 0.219-3.832 0.345-5.916 0.345s-4.141-0.125-6.16-0.368l0.243 0.024c-27.171-5.782-47.268-29.548-47.332-58.020v-266.702c0 0 0 0 0 0 0-32.721 26.461-59.262 59.152-59.392h341.345c32.801 0 59.392 26.591 59.392 59.392v0 0 266.695c-0.063 28.478-20.16 52.245-46.942 57.957l-0.389 0.070zM687.218 456.192c0.006-0.071 0.009-0.153 0.009-0.236 0-1.759-1.426-3.186-3.186-3.186-0.083 0-0.166 0.003-0.247 0.009l0.011-0.001h-341.333c-1.885 0-3.413 1.528-3.413 3.413v0 266.695c0 1.885 1.528 3.413 3.413 3.413v0h341.333c1.885 0 3.413-1.528 3.413-3.413v0zM344.519 342.187h-27.989c-18.851 0-34.133-15.282-34.133-34.133s15.282-34.133 34.133-34.133v0h27.989c18.851 0 34.133 15.282 34.133 34.133s-15.282 34.133-34.133 34.133v0zM344.519 229.774h-27.989c-18.474 0-33.451-14.976-33.451-33.451s14.976-33.451 33.451-33.451h27.989c18.474 0 33.451 14.976 33.451 33.451s-14.976 33.451-33.451 33.451v0zM344.519 118.044h-27.989c-17.371-1.474-30.912-15.938-30.912-33.564s13.541-32.090 30.788-33.556l0.124-0.009h27.989c0.828-0.072 1.792-0.114 2.766-0.114 18.6 0 33.678 15.078 33.678 33.678s-15.078 33.678-33.678 33.678c-0.974 0-1.938-0.041-2.89-0.122l0.124 0.009zM466.489 342.187h-28.217c-18.851 0-34.133-15.282-34.133-34.133s15.282-34.133 34.133-34.133v0h28.217c18.851 0 34.133 15.282 34.133 34.133s-15.282 34.133-34.133 34.133v0zM466.489 229.774h-28.217c-18.474 0-33.451-14.976-33.451-33.451s14.976-33.451 33.451-33.451h28.217c18.474 0 33.451 14.976 33.451 33.451s-14.976 33.451-33.451 33.451v0zM466.489 118.044h-28.217c-17.371-1.474-30.912-15.938-30.912-33.564s13.541-32.090 30.788-33.556l0.124-0.009h28.217c17.371 1.474 30.912 15.938 30.912 33.564s-13.541 32.090-30.788 33.556l-0.124 0.009zM588.004 342.187h-27.989c-18.851 0-34.133-15.282-34.133-34.133s15.282-34.133 34.133-34.133v0h27.989c18.851 0 34.133 15.282 34.133 34.133s-15.282 34.133-34.133 34.133v0zM588.004 229.774h-27.989c-18.474 0-33.451-14.976-33.451-33.451s14.976-33.451 33.451-33.451h27.989c18.474 0 33.451 14.976 33.451 33.451s-14.976 33.451-33.451 33.451v0zM588.004 118.044h-27.989c-0.828 0.072-1.792 0.114-2.766 0.114-18.6 0-33.678-15.078-33.678-33.678s15.078-33.678 33.678-33.678c0.974 0 1.938 0.041 2.89 0.122l-0.124-0.009h27.989c17.371 1.474 30.912 15.938 30.912 33.564s-13.541 32.090-30.788 33.556l-0.124 0.009zM709.746 342.187h-28.217c-18.851 0-34.133-15.282-34.133-34.133s15.282-34.133 34.133-34.133v0h28.217c18.851 0 34.133 15.282 34.133 34.133s-15.282 34.133-34.133 34.133v0zM709.746 229.774h-28.217c-18.474 0-33.451-14.976-33.451-33.451s14.976-33.451 33.451-33.451h28.217c18.474 0 33.451 14.976 33.451 33.451s-14.976 33.451-33.451 33.451v0zM709.746 118.044h-28.217c-17.371-1.474-30.912-15.938-30.912-33.564s13.541-32.090 30.788-33.556l0.124-0.009h28.217c17.371 1.474 30.912 15.938 30.912 33.564s-13.541 32.090-30.788 33.556l-0.124 0.009z" />
<glyph unicode="&#xe927;" glyph-name="outras-ofertas" d="M792.042 960h-563.2c-28.031 0-50.755-22.724-50.755-50.755v0-912.696c0.126-27.98 22.774-50.629 50.743-50.755h563.212c27.935 0.126 50.532 22.801 50.532 50.754 0 0 0 0 0 0.001v0 912.696c0 0 0 0 0 0 0 27.953-22.597 50.628-50.52 50.754h-0.012zM783.137 900.563v-895.332h-545.614v895.332zM329.461 451.339h361.739c16.474 0 29.83 13.355 29.83 29.83v0 314.101c0 16.474-13.355 29.83-29.83 29.83h-361.739c-16.474 0-29.83-13.355-29.83-29.83v0-314.101c0-16.474 13.355-29.83 29.83-29.83v0zM359.29 510.776v254.664h302.080v-254.664zM400.696 375.875h-25.377c-15.329-1.368-27.255-14.15-27.255-29.718s11.926-28.351 27.141-29.71l0.114-0.008h25.377c0.771-0.071 1.668-0.111 2.574-0.111 16.474 0 29.83 13.355 29.83 29.83s-13.355 29.83-29.83 29.83c-0.906 0-1.803-0.040-2.689-0.12l0.114 0.008zM400.696 258.115h-25.377c-16.474 0-29.83-13.355-29.83-29.83s13.355-29.83 29.83-29.83h25.377c16.474 0 29.83 13.355 29.83 29.83s-13.355 29.83-29.83 29.83v0zM400.696 140.132h-25.377c-16.474 0-29.83-13.355-29.83-29.83s13.355-29.83 29.83-29.83h25.377c16.474 0 29.83 13.355 29.83 29.83s-13.355 29.83-29.83 29.83v0zM522.908 375.875h-24.932c-0.771 0.071-1.668 0.111-2.574 0.111-16.474 0-29.83-13.355-29.83-29.83s13.355-29.83 29.83-29.83c0.906 0 1.803 0.040 2.689 0.12l-0.114-0.008h24.932c15.329 1.368 27.255 14.15 27.255 29.718s-11.926 28.351-27.141 29.71l-0.114 0.008zM522.908 258.115h-24.932c-16.474 0-29.83-13.355-29.83-29.83s13.355-29.83 29.83-29.83h24.932c16.474 0 29.83 13.355 29.83 29.83s-13.355 29.83-29.83 29.83v0zM522.908 140.132h-24.932c-16.474 0-29.83-13.355-29.83-29.83s13.355-29.83 29.83-29.83h24.932c16.474 0 29.83 13.355 29.83 29.83s-13.355 29.83-29.83 29.83v0zM645.565 375.875h-25.155c-0.771 0.071-1.668 0.111-2.574 0.111-16.474 0-29.83-13.355-29.83-29.83s13.355-29.83 29.83-29.83c0.906 0 1.803 0.040 2.689 0.12l-0.114-0.008h25.155c0.771-0.071 1.668-0.111 2.574-0.111 16.474 0 29.83 13.355 29.83 29.83s-13.355 29.83-29.83 29.83c-0.906 0-1.803-0.040-2.689-0.12l0.114 0.008zM645.565 258.115h-25.155c-16.474 0-29.83-13.355-29.83-29.83s13.355-29.83 29.83-29.83h25.155c16.474 0 29.83 13.355 29.83 29.83s-13.355 29.83-29.83 29.83v0zM645.565 140.132h-25.155c-16.474 0-29.83-13.355-29.83-29.83s13.355-29.83 29.83-29.83h25.155c16.474 0 29.83 13.355 29.83 29.83s-13.355 29.83-29.83 29.83v0z" />
<glyph unicode="&#xe928;" glyph-name="pep" d="M936.458 775.479c-0.108 23.294-17.446 42.505-39.918 45.552l-0.239 0.026c-65.696 9.064-124.835 24.162-181.147 45.076l5.862-1.907c-73.563 27.913-135.736 57.828-194.942 92.281l6.205-3.334c-6.617 4.167-14.665 6.639-23.291 6.639s-16.674-2.472-23.475-6.747l0.184 0.108c-53.371-31.535-115.761-61.532-180.743-86.274l-8.597-2.874c-50.661-19.087-110.014-34.192-171.482-42.671l-4.405-0.498c-22.029-4.102-38.709-22.495-40.15-45.033l-0.007-0.143c-5.421-250.579 50.397-458.19 166.249-618.817 63.46-87.538 143.039-159.299 234.897-212.11l3.635-1.926c6.862-4.255 15.178-6.79 24.084-6.827h0.010c0.103-0.001 0.225-0.001 0.347-0.001 8.483 0 16.407 2.391 23.135 6.536l-0.191-0.109c95.192 55.139 174.591 126.977 236.623 212.262l1.508 2.176c115.853 159.624 171.671 368.038 165.848 618.616zM850.322 741.346c0-217.851-51.602-398.155-151.191-535.893-51.868-71.102-115.16-130.365-187.752-176.247l-2.793-1.648c-75.356 47.404-138.594 106.612-189.006 175.769l-1.338 1.925c-100.392 139.344-150.789 319.649-151.391 536.094 61.542 11.41 115.443 26.704 167.195 46.363l-6.567-2.19c71.594 27.406 131.111 55.355 188.312 86.982l-7.606-3.857c49.684-27.87 109.205-55.821 170.747-79.722l9.959-3.403c45.389-17.459 99.568-32.755 155.443-43.239l5.988-0.934z" />
<glyph unicode="&#xe929;" glyph-name="PJ1" d="M834.337 28.828l-121.99 386.449c-14.178 46.989-56.839 80.716-107.458 81.252l-0.062 0.001h-194.115c-50.721-0.585-93.417-34.276-107.531-80.446l-0.212-0.806-121.544-386.226c-2.109-6.418-3.325-13.805-3.325-21.476 0-15.69 5.088-30.191 13.704-41.943l-0.139 0.199c12.109-16.578 31.373-27.306 53.157-27.603l0.047-0.001h525.357c0.009 0 0.019 0 0.030 0 21.958 0 41.39 10.813 53.262 27.406l0.135 0.198c8.652 11.605 13.852 26.227 13.852 42.063 0 7.473-1.158 14.675-3.304 21.437l0.137-0.501zM249.322 9.238l121.322 384.89c5.084 17.895 20.966 30.906 39.992 31.608l0.078 0.002h64.779v-66.783h68.786v66.783h60.995c19.25-0.635 35.265-13.775 40.22-31.529l0.072-0.304 120.877-384.668zM516.007 564.202c104.975 2.712 189.037 88.455 189.037 193.831 0 1.43-0.015 2.857-0.046 4.28l0.004-0.212c0.027 1.211 0.043 2.637 0.043 4.068 0 105.377-84.063 191.119-188.787 193.826l-0.251 0.005c-104.877-2.834-188.815-88.527-188.815-193.826 0-1.432 0.016-2.861 0.046-4.286l-0.004 0.212c-0.027-1.212-0.043-2.641-0.043-4.073 0-105.298 83.938-190.992 188.553-193.82l0.262-0.006zM516.007 889.21c65.758-2.662 118.059-56.616 118.059-122.785 0-1.521-0.028-3.035-0.082-4.542l0.006 0.218c0.048-1.289 0.076-2.803 0.076-4.324 0-66.169-52.301-120.123-117.818-122.778l-0.241-0.008c-65.66 2.781-117.836 56.686-117.836 122.776 0 1.524 0.028 3.041 0.083 4.552l-0.006-0.219c-0.049 1.292-0.076 2.809-0.076 4.333 0 66.091 52.177 119.995 117.586 122.768l0.251 0.008zM475.492 327.346h68.563v-211.033h-68.563v211.033z" />
<glyph unicode="&#xe92a;" glyph-name="PJ2" d="M516.007 564.202c104.975 2.712 189.037 88.455 189.037 193.831 0 1.43-0.015 2.857-0.046 4.28l0.004-0.212c0.027 1.211 0.043 2.637 0.043 4.068 0 105.377-84.063 191.119-188.787 193.826l-0.251 0.005c-104.877-2.834-188.815-88.527-188.815-193.826 0-1.432 0.016-2.861 0.046-4.286l-0.004 0.212c-0.027-1.212-0.043-2.641-0.043-4.073 0-105.298 83.938-190.992 188.553-193.82l0.262-0.006zM516.007 889.21c65.758-2.662 118.059-56.616 118.059-122.785 0-1.521-0.028-3.035-0.082-4.542l0.006 0.218c0.048-1.289 0.076-2.803 0.076-4.324 0-66.169-52.301-120.123-117.818-122.778l-0.241-0.008c-65.66 2.781-117.836 56.686-117.836 122.776 0 1.524 0.028 3.041 0.083 4.552l-0.006-0.219c-0.049 1.292-0.076 2.809-0.076 4.333 0 66.091 52.177 119.995 117.586 122.768l0.251 0.008zM834.337 28.828l-121.99 386.449c-14.178 46.989-56.839 80.716-107.458 81.252l-0.062 0.001h-194.115c-50.721-0.585-93.417-34.276-107.531-80.446l-0.212-0.806-121.544-386.226c-2.109-6.418-3.325-13.805-3.325-21.476 0-15.69 5.088-30.191 13.704-41.943l-0.139 0.199c12.109-16.578 31.373-27.306 53.157-27.603l0.047-0.001h525.357c0.009 0 0.019 0 0.030 0 21.958 0 41.39 10.813 53.262 27.406l0.135 0.198c8.652 11.605 13.852 26.227 13.852 42.063 0 7.473-1.158 14.675-3.304 21.437l0.137-0.501zM544.946 116.313h-69.454v211.033h68.786zM544.946 359.179h-69.454v68.563h68.786z" />
<glyph unicode="&#xe92b;" glyph-name="preanalise_1" d="M972.335-3.724h-35.607v616.262c0 0 0 0 0 0 0 33.208-26.854 60.144-60.031 60.276h-97.060c-33.189-0.132-60.044-27.068-60.044-60.276 0 0 0 0 0 0v0-616.262h-93.091v333.731c-0.132 33.108-26.936 59.912-60.031 60.044h-96.129c0 0 0 0 0 0-33.208 0-60.144-26.854-60.276-60.031v-333.744h-93.091v169.193c0 0.001 0 0.003 0 0.004 0 33.29-26.987 60.276-60.276 60.276-0.245 0-0.491-0.001-0.735-0.004h-96.079c-33.189-0.132-60.044-27.068-60.044-60.276 0 0 0 0 0 0v0-169.193h-37.935c-13.917-1.329-24.714-12.96-24.714-27.113s10.798-25.784 24.604-27.104l0.11-0.009h910.429c13.917 1.329 24.714 12.96 24.714 27.113s-10.798 25.784-24.604 27.104l-0.11 0.009zM262.051-3.724h-107.985v170.589c0.648 2.667 3 4.621 5.814 4.655h96.12c3.342 0 6.051-2.709 6.051-6.051v0zM572.509-3.724h-107.985v335.36c0.464 2.788 2.859 4.888 5.743 4.888 0.026 0 0.053 0 0.079-0.001h96.112c3.342 0 6.051-2.709 6.051-6.051v0zM882.735-3.724h-107.753v617.425c0.632 2.721 2.97 4.742 5.803 4.887l0.015 0.001h96.116c3.342 0 6.051-2.709 6.051-6.051v0zM206.196 412.16l4.655-4.655c4.842-4.813 11.487-7.817 18.833-7.913h0.018c7.449 0.030 14.187 3.047 19.085 7.914l-0.001-0.001 333.498 333.033 67.956-67.956c4.868-4.612 11.458-7.448 18.711-7.448 0.049 0 0.098 0 0.147 0h-0.008c0.083-0.001 0.181-0.001 0.279-0.001 7.367 0 14.026 3.029 18.8 7.909l0.005 0.005 194.56 193.862v-46.545c-0.006-0.208-0.009-0.453-0.009-0.699 0-15.088 12.168-27.334 27.226-27.461h0.012c14.945 0.123 27.012 12.266 27.012 27.228 0 0.328-0.006 0.654-0.017 0.979l0.001-0.047v111.011c0.037 0.525 0.058 1.137 0.058 1.755 0 7.425-3.050 14.138-7.966 18.954l-0.005 0.004c-4.961 4.92-11.793 7.96-19.335 7.96-0.567 0-1.129-0.017-1.687-0.051l0.077 0.004h-118.691c-13.917-1.329-24.714-12.96-24.714-27.113s10.798-25.784 24.604-27.104l0.11-0.009h55.156l-175.476-175.476-67.724 66.793c-4.851 4.887-11.571 7.913-18.998 7.913-0.030 0-0.060 0-0.090 0h0.005c-0.037 0-0.081 0-0.125 0-7.488 0-14.27-3.023-19.193-7.914l0.001 0.001-352.116-351.185c-4.827-4.979-7.803-11.777-7.803-19.269 0-0.918 0.045-1.825 0.132-2.72l-0.009 0.114 1.396-6.749z" />
<glyph unicode="&#xe92c;" glyph-name="restritivo" d="M512 960c-282.77 0-512-229.23-512-512s229.23-512 512-512c282.77 0 512 229.23 512 512v0c-0.339 282.633-229.366 511.66-511.967 512h-0.033zM842.265 711.456c57.29-71.485 91.942-163.265 91.942-263.139 0-233.354-189.171-422.524-422.524-422.524-99.874 0-191.654 34.652-263.974 92.588l0.835-0.647zM775.456 778.265l-593.721-593.721c-57.29 71.485-91.942 163.265-91.942 263.139 0 233.354 189.171 422.524 422.524 422.524 99.874 0 191.654-34.652 263.974-92.588l-0.835 0.647z" />
<glyph unicode="&#xe92d;" glyph-name="search" d="M1007.229 65.233l-209.141 208.894c48.324 69.413 77.207 155.505 77.207 248.342 0 241.907-196.104 438.012-438.012 438.012s-438.012-196.104-438.012-438.012c0-241.907 196.104-438.012 438.012-438.012 92.838 0 178.93 28.883 249.78 78.153l-1.437-0.946 208.894-208.894c10.286-10.393 24.553-16.829 40.324-16.829s30.038 6.436 40.319 16.824l0.005 0.005 32.062 31.815c10.274 10.341 16.624 24.591 16.624 40.324s-6.35 29.983-16.627 40.327l0.003-0.003zM437.765 206.304c-174.484 0-315.931 141.447-315.931 315.931s141.447 315.931 315.931 315.931c174.484 0 315.931-141.447 315.931-315.931v0c0-174.484-141.447-315.931-315.931-315.931v0z" />
<glyph unicode="&#xe92e;" glyph-name="edit" d="M843.413 960c-0.152 0-0.332 0.001-0.512 0.001-49.709 0-94.696-20.214-127.192-52.87l-0.007-0.007-22.248-21.381 128.578-128c5.472-5.472 13.031-8.857 21.381-8.857 16.7 0 30.238 13.538 30.238 30.238 0 8.35-3.385 15.909-8.857 21.381v0l-82.059 82.348c17.367 10.355 38.3 16.477 60.664 16.477 66.224 0 119.91-53.685 119.91-119.91 0-24.282-7.218-46.879-19.625-65.761l0.28 0.453-4.045-6.068c-2.889-3.756-5.779-7.223-8.957-10.691v0l-701.833-700.677h-168.451v168.74l609.372 609.95c5.509 5.509 8.916 13.12 8.916 21.526 0 16.813-13.629 30.442-30.442 30.442-8.406 0-16.017-3.407-21.526-8.916v0l-618.041-619.196c-2.729-2.515-4.89-5.603-6.296-9.077l-0.060-0.169c-1.426-3.596-2.27-7.761-2.311-12.118v-241.57h241.264c0.22-0.006 0.478-0.009 0.738-0.009 8.085 0 15.395 3.321 20.639 8.673l0.005 0.005 710.79 709.345c4.875 5.103 9.514 10.567 13.823 16.293l0.335 0.465 6.646 9.535c18.114 27.473 28.896 61.172 28.896 97.389 0 0.299-0.001 0.598-0.002 0.896v-0.046c0.001 0.172 0.001 0.375 0.001 0.579 0 99.533-80.523 180.258-179.979 180.586h-0.031z" />
<glyph unicode="&#xe92f;" glyph-name="unlock" d="M800 554.667h-439.467v173.013c-0.003 0.354-0.005 0.773-0.005 1.192 0 84.36 68.387 152.747 152.747 152.747 81.552 0 148.177-63.911 152.521-144.379l0.017-0.386v-15.147h79.147v16.853c-7.482 122.241-108.45 218.547-231.911 218.547-127.289 0-230.669-102.37-232.3-229.273l-0.002-0.154v-173.013h-54.827c-47.991-0.119-86.891-38.87-87.253-86.792v-440.354c0.121-48.14 39.113-87.132 87.242-87.253h574.092c48.097 0.121 87.040 39.139 87.040 87.253 0 0 0 0 0 0v0 440.32c-0.242 47.93-39.093 86.706-87.028 86.827h-0.012zM823.68 27.093h-15.147c-0.020-2.172-0.913-4.131-2.346-5.546l-0.001-0.001c-1.328-1.443-3.225-2.344-5.333-2.347h-574.934c-4.312 0.116-7.778 3.581-7.893 7.882v440.758c0.119 4.267 3.606 7.68 7.89 7.68 0.001 0 0.002 0 0.003 0h574.080c0.057 0.002 0.125 0.003 0.193 0.003 2.009 0 3.827-0.816 5.14-2.136v0c1.433-1.416 2.327-3.375 2.347-5.543v-440.324zM513.28 399.787v0c-55.206-0.068-99.934-44.837-99.934-100.053 0-26.008 9.923-49.697 26.189-67.49l-0.069 0.077v-69.333c0-40.766 33.047-73.813 73.813-73.813s73.813 33.047 73.813 73.813v0 69.333c16.197 17.716 26.12 41.406 26.12 67.413 0 55.216-44.727 99.985-99.927 100.053h-0.007zM490.027 281.813c-6.1 5.419-9.925 13.284-9.925 22.042 0 8.034 3.218 15.316 8.436 20.628l-0.004-0.004c6.224 6.252 14.808 10.148 24.303 10.24h0.017c0.395 0.017 0.858 0.027 1.324 0.027 17.082 0 31.039-13.385 31.952-30.24l0.004-0.081c-0.241-8.51-4.058-16.084-9.994-21.305l-0.033-0.028c-11.961-10.455-19.556-25.647-19.839-42.617l-0.001-0.049v-83.627c-0.657-0.662-1.568-1.072-2.574-1.072-0.070 0-0.14 0.002-0.209 0.006h0.010c-0.072-0.006-0.156-0.009-0.241-0.009-1.62 0-2.959 1.204-3.171 2.766l-0.002 0.017v80.427c-0.277 17.13-7.961 32.411-19.981 42.818l-0.073 0.062z" />
<glyph unicode="&#xe930;" glyph-name="user" d="M834.337 28.828l-121.99 386.449c-14.178 46.989-56.839 80.716-107.458 81.252l-0.062 0.001h-194.115c-50.721-0.585-93.417-34.276-107.531-80.446l-0.212-0.806-121.544-386.226c-2.109-6.418-3.325-13.805-3.325-21.476 0-15.69 5.088-30.191 13.704-41.943l-0.139 0.199c12.109-16.578 31.373-27.306 53.157-27.603l0.047-0.001h525.357c0.009 0 0.019 0 0.030 0 21.958 0 41.39 10.813 53.262 27.406l0.135 0.198c8.652 11.605 13.852 26.227 13.852 42.063 0 7.473-1.158 14.675-3.304 21.437l0.137-0.501zM249.322 9.238l121.322 384.89c5.084 17.895 20.966 30.906 39.992 31.608l0.078 0.002h194.56c19.25-0.635 35.265-13.775 40.22-31.529l0.072-0.304 120.877-384.668zM516.007 564.202c104.975 2.712 189.037 88.455 189.037 193.831 0 1.43-0.015 2.857-0.046 4.28l0.004-0.212c0.027 1.211 0.043 2.637 0.043 4.068 0 105.377-84.063 191.119-188.787 193.826l-0.251 0.005c-104.877-2.834-188.815-88.527-188.815-193.826 0-1.432 0.016-2.861 0.046-4.286l-0.004 0.212c-0.027-1.212-0.043-2.641-0.043-4.073 0-105.298 83.938-190.992 188.553-193.82l0.262-0.006zM516.007 889.21c65.758-2.662 118.059-56.616 118.059-122.785 0-1.521-0.028-3.035-0.082-4.542l0.006 0.218c0.048-1.289 0.076-2.803 0.076-4.324 0-66.169-52.301-120.123-117.818-122.778l-0.241-0.008c-65.66 2.781-117.836 56.686-117.836 122.776 0 1.524 0.028 3.041 0.083 4.552l-0.006-0.219c-0.049 1.292-0.076 2.809-0.076 4.333 0 66.091 52.177 119.995 117.586 122.768l0.251 0.008z" />
<glyph unicode="&#xe931;" glyph-name="user-exclude" d="M426.963 564.202c104.975 2.712 189.037 88.455 189.037 193.831 0 1.43-0.015 2.857-0.046 4.28l0.004-0.212c0.027 1.211 0.043 2.637 0.043 4.068 0 105.377-84.063 191.119-188.787 193.826l-0.251 0.005c-104.877-2.834-188.815-88.527-188.815-193.826 0-1.432 0.016-2.861 0.046-4.286l-0.004 0.212c-0.027-1.212-0.043-2.641-0.043-4.073 0-105.298 83.938-190.992 188.553-193.82l0.262-0.006zM426.963 889.21c65.758-2.662 118.059-56.616 118.059-122.785 0-1.521-0.028-3.035-0.082-4.542l0.006 0.218c0.048-1.289 0.076-2.803 0.076-4.324 0-66.169-52.301-120.123-117.818-122.778l-0.241-0.008c-65.66 2.781-117.836 56.686-117.836 122.776 0 1.524 0.028 3.041 0.083 4.552l-0.006-0.219c-0.049 1.292-0.076 2.809-0.076 4.333 0 66.091 52.177 119.995 117.586 122.768l0.251 0.008zM160.278 9.238l121.322 384.89c5.084 17.895 20.966 30.906 39.992 31.608l0.078 0.002h194.56c15.5-0.44 28.848-9.242 35.73-22.038l0.11-0.223c18.435 12.551 39.687 22.991 62.365 30.238l1.746 0.482c-18.655 37.186-56.315 62.355-99.895 62.775h-194.616c-50.721-0.585-93.417-34.276-107.531-80.446l-0.212-0.806-121.544-386.671c-2.109-6.418-3.325-13.805-3.325-21.476 0-15.69 5.088-30.191 13.704-41.943l-0.139 0.199c12.109-16.578 31.373-27.306 53.157-27.603l0.047-0.001h525.357c0.666-0.051 1.443-0.081 2.226-0.081s1.56 0.029 2.329 0.087l-0.102-0.006c-65.473 1.696-124.446 28.199-168.141 70.413l0.072-0.069zM704.111 425.739c-128.967 0-233.516-104.549-233.516-233.517s104.549-233.517 233.517-233.517c128.968 0 233.517 104.549 233.517 233.517 0 0.235 0 0.469-0.001 0.704v-0.036c-0.38 128.68-104.783 232.849-233.516 232.849 0 0-0.001 0-0.001 0v0zM823.652 100.508c3.475-3.475 5.625-8.276 5.625-13.579 0-10.606-8.598-19.204-19.204-19.204-5.303 0-10.104 2.149-13.579 5.625v0l-92.383 92.16-92.16-92.16c-3.469-3.49-8.272-5.649-13.579-5.649s-10.111 2.16-13.578 5.648l-0.001 0.001c-3.49 3.469-5.649 8.272-5.649 13.579s2.16 10.111 5.648 13.578l0.001 0.001 92.16 92.383-92.16 92.16c-3.49 3.469-5.649 8.272-5.649 13.579s2.16 10.111 5.648 13.578l0.001 0.001c3.469 3.49 8.272 5.649 13.579 5.649s10.111-2.16 13.578-5.648l92.161-92.161 92.383 92.16c3.475 3.475 8.276 5.625 13.579 5.625 10.606 0 19.204-8.598 19.204-19.204 0-5.303-2.149-10.104-5.625-13.579v0l-92.383-92.16z" />
<glyph unicode="&#xe932;" glyph-name="venda-digitada" d="M112.64-64v1024h552.96l249.242-249.037v-774.963zM161.587-11.981h696.32v691.2h-219.955v230.4h-476.365zM675.84 720.998h161.587l-161.587 161.587zM375.398 302.182c-3.686 0-6.963 0-9.421 0-2.276 0.026-4.456 0.399-6.502 1.067l0.154-0.043c-1.562 0.515-2.919 1.21-4.143 2.080l0.047-0.032c-1.069 0.706-1.911 1.679-2.44 2.825l-0.017 0.042c-0.775 1.177-1.405 2.539-1.818 3.992l-0.025 0.104-74.752 223.846c-1.287 3.197-2.29 6.926-2.837 10.801l-0.030 0.258c-0.114 0.45-0.179 0.966-0.179 1.498 0 1.833 0.777 3.484 2.019 4.643l0.004 0.003c2.313 1.541 5.157 2.459 8.214 2.459 0.064 0 0.128 0 0.192-0.001h-0.010c3.891 0 9.216 0 16.384 0h13.926c2.839-0.176 5.493-0.687 8.013-1.498l-0.231 0.064c1.607-0.405 2.918-1.448 3.671-2.837l0.015-0.030c0.889-1.413 1.593-3.053 2.024-4.8l0.024-0.115 61.44-194.15 60.006 193.126c0.408 2.009 1.118 3.792 2.090 5.4l-0.042-0.075c0.898 1.488 2.239 2.63 3.838 3.259l0.053 0.018c2.434 0.85 5.242 1.369 8.162 1.433l0.030 0.001c2.141 0.118 4.647 0.185 7.168 0.185s5.027-0.067 7.515-0.2l-0.347 0.015c2.083 0.147 4.513 0.23 6.963 0.23s4.881-0.084 7.289-0.248l-0.326 0.018c2.61-0.234 4.939-1.28 6.773-2.879l-0.014 0.012c0.937-1.2 1.502-2.729 1.502-4.39 0-0.698-0.1-1.372-0.285-2.009l0.013 0.051c-0.958-4.346-2.015-7.979-3.277-11.514l0.205 0.659-74.957-223.232c-0.465-2.036-1.318-3.822-2.483-5.36l0.025 0.035c-1.25-1.578-3.031-2.689-5.068-3.064l-0.052-0.008c-2.768-0.743-5.991-1.256-9.304-1.429l-0.117-0.005h-29.082zM547.021 302.182c-0.212-0.011-0.46-0.017-0.709-0.017-8.031 0-14.541 6.51-14.541 14.541 0 0.583 0.034 1.159 0.101 1.724l-0.007-0.069v220.57c-0.060 0.497-0.095 1.072-0.095 1.656 0 8.031 6.51 14.541 14.541 14.541 0.249 0 0.497-0.006 0.744-0.019l-0.035 0.001h64.717c1.139 0.026 2.481 0.040 3.826 0.040 19.027 0 37.368-2.935 54.595-8.377l-1.282 0.349c15.409-4.982 28.637-12.99 39.57-23.388l-0.043 0.041c10.657-10.472 18.982-23.28 24.15-37.597l0.221-0.701c5.336-14.885 8.42-32.058 8.42-49.951 0-0.943-0.009-1.884-0.026-2.823l0.002 0.141c0.022-1.033 0.034-2.25 0.034-3.469 0-19.932-3.311-39.092-9.413-56.957l0.368 1.24c-5.56-16.124-14.478-29.858-25.977-40.929l-0.032-0.031c-11.339-10.237-25.062-18.065-40.221-22.546l-0.739-0.187c-16.047-4.709-34.483-7.418-53.552-7.418-1.478 0-2.951 0.016-4.421 0.049l0.219-0.004zM582.861 343.142h26.829c0.485-0.009 1.057-0.014 1.63-0.014 12.145 0 23.763 2.259 34.456 6.38l-0.655-0.222c9.536 3.526 17.589 9.14 23.906 16.319l0.056 0.065c6.508 7.587 11.456 16.715 14.221 26.748l0.115 0.491c3.025 10.353 4.766 22.246 4.766 34.545 0 1.319-0.020 2.634-0.060 3.944l0.005-0.192c0.010 0.573 0.015 1.249 0.015 1.926 0 11.114-1.501 21.878-4.31 32.1l0.199-0.848c-2.668 10.256-7.341 19.182-13.608 26.737l0.091-0.113c-6.232 7.918-14.207 14.185-23.367 18.276l-0.39 0.156c-10.223 4.057-22.068 6.41-34.463 6.41-1.205 0-2.404-0.022-3.598-0.066l0.172 0.005h-25.19z" />
<glyph unicode="&#xe933;" glyph-name="whitelist" d="M665.6 960h-552.96v-1024h802.202v774.963zM675.635 882.586l161.587-161.587h-161.382zM857.702-11.981h-696.32v921.6h476.57v-230.4h219.955zM319.078 520.499c2.46-2.044 5.651-3.285 9.132-3.285 1.491 0 2.929 0.228 4.281 0.65l-0.102-0.027c0.337-0.1 0.725-0.158 1.126-0.158s0.789 0.058 1.155 0.165l-0.029-0.007c1.413 0.391 2.644 1.024 3.709 1.86l-0.023-0.017 94.413 74.547c3.465 2.645 5.678 6.777 5.678 11.426 0 3.445-1.215 6.607-3.241 9.079l0.020-0.025-2.253 2.867c-2.606 3.442-6.695 5.643-11.298 5.643-3.514 0-6.729-1.283-9.201-3.406l0.019 0.016-83.968-66.355-36.864 33.178c-2.548 2.157-5.871 3.469-9.501 3.469-4.354 0-8.268-1.887-10.967-4.889l-0.012-0.013-1.843-2.253c-2.31-2.508-3.726-5.869-3.726-9.562 0-4.387 1.999-8.307 5.136-10.899l0.024-0.019zM443.187 555.52h304.538c7.691 0 13.926-6.235 13.926-13.926v-5.939c0-7.691-6.235-13.926-13.926-13.926h-304.538c-7.691 0-13.926 6.235-13.926 13.926v5.939c0 7.691 6.235 13.926 13.926 13.926zM319.078 349.082c2.511-2.123 5.785-3.414 9.361-3.414 1.407 0 2.767 0.2 4.053 0.572l-0.103-0.025h2.253c1.455 0.613 2.667 1.23 3.829 1.922l-0.142-0.078 94.413 74.752c3.465 2.645 5.678 6.777 5.678 11.426 0 3.445-1.215 6.607-3.241 9.079l0.020-0.025-2.253 2.662c-2.606 3.442-6.695 5.643-11.298 5.643-3.514 0-6.729-1.283-9.201-3.406l0.019 0.016-83.968-66.355-36.864 33.178c-2.522 2.257-5.871 3.636-9.541 3.636-4.375 0-8.292-1.96-10.922-5.049l-0.017-0.020-1.843-2.048c-2.257-2.522-3.636-5.871-3.636-9.541 0-4.375 1.96-8.292 5.049-10.922l0.020-0.017zM443.187 384.102h304.538c7.691 0 13.926-6.235 13.926-13.926v-5.939c0-7.691-6.235-13.926-13.926-13.926h-304.538c-7.691 0-13.926 6.235-13.926 13.926v5.939c0 7.691 6.235 13.926 13.926 13.926zM435.61 279.654l-2.253 2.662c-2.606 3.442-6.695 5.643-11.298 5.643-3.514 0-6.729-1.283-9.201-3.406l0.019 0.016-83.968-66.355-37.274 32.973c-2.522 2.257-5.871 3.636-9.541 3.636-4.375 0-8.292-1.96-10.922-5.049l-0.017-0.020-1.843-2.048c-2.257-2.522-3.636-5.871-3.636-9.541 0-4.375 1.96-8.292 5.049-10.922l0.020-0.017 48.333-40.96c2.511-2.123 5.785-3.414 9.361-3.414 1.407 0 2.767 0.2 4.053 0.572l-0.103-0.025h2.253l3.686 1.843 94.413 74.752c3.386 2.648 5.542 6.733 5.542 11.322 0 3.129-1.002 6.024-2.704 8.381l0.029-0.042zM443.187 220.262h304.538c7.691 0 13.926-6.235 13.926-13.926v-5.939c0-7.691-6.235-13.926-13.926-13.926h-304.538c-7.691 0-13.926 6.235-13.926 13.926v5.939c0 7.691 6.235 13.926 13.926 13.926z" />
<glyph unicode="&#xe934;" glyph-name="contraste" horiz-adv-x="1025" d="M1025.178 444.938c0 0.144 0 0.314 0 0.484 0 45.893-6.189 90.34-17.778 132.553l0.821-3.506c-58.334 223.361-258.296 385.531-496.135 385.531-282.77 0-512-229.23-512-512 0-282.74 229.181-511.951 511.91-512h0.004c0.558-0.002 1.22-0.003 1.881-0.003 102.968 0 198.795 30.579 278.893 83.15l-1.93-1.189c141.721 91.342 234.25 248.347 234.333 426.968v0.013zM512-2.532c-244.222 5.763-439.999 205.108-439.999 450.178s195.777 444.416 439.465 450.169l0.534 0.010v-900.121z" />
<glyph unicode="&#xe935;" glyph-name="prevencao" horiz-adv-x="857" d="M856.144 775.479c-0.108 23.294-17.446 42.505-39.918 45.552l-0.239 0.026c-65.696 9.064-124.835 24.162-181.147 45.076l5.862-1.907c-73.563 27.913-135.736 57.828-194.942 92.281l6.205-3.334c-6.617 4.167-14.665 6.639-23.291 6.639s-16.674-2.472-23.475-6.747l0.184 0.108c-53.371-31.535-115.761-61.532-180.743-86.274l-8.597-2.874c-50.661-19.087-110.014-34.192-171.482-42.671l-4.405-0.498c-22.029-4.102-38.709-22.495-40.15-45.033l-0.007-0.143c-5.421-250.579 50.397-458.19 166.249-618.817 63.46-87.538 143.039-159.299 234.897-212.11l3.635-1.926c6.862-4.255 15.178-6.79 24.084-6.827h0.010c0.103-0.001 0.225-0.001 0.347-0.001 8.483 0 16.407 2.391 23.135 6.536l-0.191-0.109c95.192 55.139 174.591 126.977 236.623 212.262l1.508 2.176c115.853 159.624 171.671 368.038 165.848 618.616zM618.817 205.453c-51.868-71.102-115.16-130.365-187.752-176.247l-2.793-1.648c-75.356 47.404-138.594 106.612-189.006 175.769l-1.338 1.925c-100.392 139.344-150.789 319.649-151.391 536.094 61.542 11.41 115.443 26.704 167.195 46.363l-6.567-2.19c71.594 27.406 131.111 55.355 188.312 86.982l-7.606-3.857c49.684-27.87 109.205-55.821 170.747-79.722l9.959-3.403c45.133-17.407 99.031-32.698 154.614-43.225l6.013-0.947c0.201-217.851-50.798-398.155-150.387-535.893zM554.365 710.425l-126.093-126.093-126.093 126.093-50.798-50.999 125.892-126.093-125.892-125.892 50.798-50.999 126.093 125.892 126.093-125.892 50.999 50.999-126.093 125.892 126.093 126.093-50.999 50.999z" />
<glyph unicode="&#xe936;" glyph-name="segmento" d="M1016.936 470.896c0 269.884-226.040 489.104-505.423 489.104v-492.027h505.18s0.244 1.949 0.244 2.923zM961.644 427.052c-11.454-239.459-208.385-429.269-449.648-429.269-248.601 0-450.131 201.531-450.131 450.131 0 234.194 178.85 426.616 407.416 448.131l1.797 0.137v62.112c-264.355-21.831-470.633-241.765-470.633-509.877 0-282.501 229.012-511.513 511.513-511.513 274.987 0 499.292 216.991 511.030 489.087l0.036 1.060z" />
<glyph unicode="&#xe937;" glyph-name="credenciador1" horiz-adv-x="1043" d="M1040.003 842.025c-5.144 13.203-17.514 22.501-32.124 23.072l-0.068 0.002-80.201 3.536-3.536 57.313c-0.851 14.693-10.416 26.951-23.569 31.74l-0.25 0.079c-3.704 1.431-7.99 2.259-12.47 2.259-10.376 0-19.713-4.446-26.211-11.537l-0.024-0.027-52.475-55.824c-15.476-16.403-25.065-38.506-25.307-62.847v-88.25l-37.216-37.216c-78.926 73.765-185.274 119.059-302.2 119.059-244.694 0-443.057-198.363-443.057-443.057s198.363-443.057 443.057-443.057c244.694 0 443.057 198.363 443.057 443.057 0 114.717-43.599 219.251-115.13 297.936l0.324-0.362 37.216 37.216h94.715c0.077 0 0.168 0 0.259 0 25.597 0 48.751 10.463 65.418 27.344l61.603 61.603c6.507 6.444 10.535 15.38 10.535 25.257 0 4.568-0.862 8.934-2.431 12.945l0.083-0.242zM831.407 379.615c0.001-0.331 0.002-0.722 0.002-1.114 0-215.096-174.37-389.466-389.466-389.466s-389.466 174.37-389.466 389.466c0 215.096 174.37 389.466 389.466 389.466 102.551 0 195.844-39.636 265.397-104.423l-0.234 0.216-84.294-84.294c-47.288 41.083-109.47 66.122-177.5 66.122-149.838 0-271.305-121.467-271.305-271.305s121.467-271.305 271.305-271.305c149.838 0 271.305 121.467 271.305 271.305 0 68.705-25.538 131.444-67.639 179.245l0.258-0.299 83.922 83.922c60.969-67.907 98.251-158.158 98.251-257.118 0-0.147 0-0.294 0-0.441v0.023zM469.853 374.405l139.374 139.002c32.324-37.901 51.989-87.454 51.989-141.601 0-120.857-97.974-218.83-218.83-218.83s-218.83 97.974-218.83 218.83c0 120.857 97.974 218.83 218.83 218.83 53.602 0 102.703-19.272 140.752-51.266l-0.334 0.273-139.188-139.188zM943.985 767.779c-10.093-10.106-24.039-16.361-39.446-16.375h-83.553v78.34c0.306 14.454 6.060 27.508 15.282 37.241l-0.024-0.025 50.8 55.824 6.141-89.877 111.648-3.163z" />
<glyph unicode="&#xe938;" d="M511.489 960c-282.487 0-511.489-229.001-511.489-511.489s229.001-511.489 511.489-511.489c282.487 0 511.489 229.001 511.489 511.489v0c0 282.487-229.001 511.489-511.489 511.489v0zM511.489-1.598c-248.589 0-450.11 201.521-450.11 450.11s201.521 450.11 450.11 450.11c248.589 0 450.11-201.521 450.11-450.11v0c0-248.589-201.521-450.11-450.11-450.11v0z" />
<glyph unicode="&#xe939;" d="M808.766 448.102c0-163.956-132.912-296.868-296.868-296.868s-296.868 132.912-296.868 296.868c0 163.956 132.912 296.868 296.868 296.868s296.868-132.912 296.868-296.868z" />
<glyph unicode="&#xe93a;" d="M660.434 448.102c0-82.034-66.502-148.536-148.536-148.536s-148.536 66.502-148.536 148.536c0 82.034 66.502 148.536 148.536 148.536s148.536-66.502 148.536-148.536z" />
<glyph unicode="&#xe93b;" glyph-name="credenciador3" horiz-adv-x="636" d="M552.48 474.668c-0.124 0.001-0.271 0.001-0.418 0.001-10.464 0-20.472-1.949-29.682-5.505l0.563 0.191c-14.51 25.926-41.8 43.163-73.116 43.163-11.572 0-22.594-2.354-32.614-6.608l0.547 0.206c-14.967 23.477-40.852 38.837-70.327 38.886h-0.007c-0.29 0.004-0.632 0.006-0.975 0.006-6.526 0-12.852-0.855-18.873-2.46l0.51 0.116v87.334c-1.113 45.139-37.97 81.306-83.273 81.306-44.032 0-80.084-34.165-83.094-77.432l-0.015-0.261s0-1.275 0-2.55v-246.491c-12.623 32.336-43.527 54.827-79.685 54.827-47.121 0-85.32-38.199-85.32-85.32 0-10.964 2.068-21.444 5.835-31.073l-0.2 0.58 40.161-161.707c10.132-41.278 27.452-77.468 50.732-108.987l-0.584 0.828 76.497-104.759c6.043-7.757 15.385-12.699 25.881-12.699 7.017 0 13.517 2.208 18.845 5.968l-0.103-0.069c6.888 4.894 11.624 12.428 12.734 21.097l0.016 0.152c0.259 1.52 0.406 3.271 0.406 5.056 0 7.052-2.306 13.566-6.204 18.828l0.061-0.086-76.497 104.546c-17.873 24.115-31.521 52.552-39.178 83.357l-0.345 1.64-41.011 161.919c-0.514 1.74-0.809 3.74-0.809 5.809 0 8.482 4.969 15.802 12.155 19.21l0.129 0.055c3.259 2.138 7.253 3.41 11.544 3.41 8.665 0 16.118-5.186 19.426-12.624l0.054-0.135 59.498-111.558c5.586-9.919 16.049-16.508 28.051-16.508 17.721 0 32.086 14.366 32.086 32.086 0 0.126-0.001 0.252-0.002 0.378v-0.019 371.224c0 10.679 8.657 19.337 19.337 19.337s19.337-8.657 19.337-19.337v0-301.101c1.912-16.063 15.452-28.4 31.874-28.4s29.962 12.337 31.859 28.248l0.015 0.152v132.808c0 10.679 8.657 19.337 19.337 19.337s19.337-8.657 19.337-19.337v0-132.808c1.912-16.063 15.452-28.4 31.874-28.4s29.962 12.337 31.859 28.248l0.015 0.152v99.871c0 10.679 8.657 19.337 19.337 19.337s19.337-8.657 19.337-19.337v0-99.871c0-17.603 14.27-31.874 31.874-31.874s31.874 14.27 31.874 31.874v0 62.685c0 10.679 8.657 19.337 19.337 19.337s19.337-8.657 19.337-19.337v0-180.193c-0.033-49.259-7.802-96.691-22.158-141.163l0.908 3.256-30.174-96.046c-0.913-2.822-1.44-6.069-1.44-9.439 0-5.493 1.399-10.66 3.86-15.163l-0.083 0.165c3.847-7.401 10.375-12.961 18.267-15.452l0.22-0.060c2.806-0.945 6.038-1.49 9.398-1.49 0.132 0 0.265 0.001 0.397 0.003h-0.020c0.144-0.002 0.314-0.004 0.485-0.004 13.757 0 25.465 8.774 29.833 21.032l0.069 0.221 30.174 96.046c15.23 46.887 24.012 100.837 24.012 156.838 0 0.068 0 0.136 0 0.205v-0.011 181.256c-0.121 45.838-37.247 82.964-83.073 83.084h-0.012zM350.703 867.815c9.721-59.889-30.948-116.32-90.837-126.041s-116.32 30.948-126.041 90.837c-9.721 59.889 30.948 116.32 90.837 126.041s116.32-30.948 126.041-90.837z" />
<glyph unicode="&#xe93c;" glyph-name="filter" d="M993.535 709.911c-16.574 0-30.011-13.436-30.011-30.011v0-31.829c0-42.97-82.984-95.261-156.647-141.414-94.124-58.657-164.604-95.943-164.604-170.515v-68.206c0-45.471 0-90.941 0-169.378v-59.567c-35.23-26.279-79.623-42.073-127.705-42.073-0.823 0-1.645 0.005-2.466 0.014l0.125-0.001c-0.099 0-0.217 0-0.335 0-47.731 0-92.091 14.435-128.953 39.177l0.833-0.527v299.197c0 74.572-72.071 113.677-166.423 171.652-74.117 45.471-159.147 98.444-157.329 141.414 0 56.838 0 166.65 0 186.657 18.188 22.735 170.288 65.705 451.524 65.705 265.549 0 416.284-38.423 447.659-61.613-31.375-22.735-181.883-72.98-447.659-72.98-124.389 3.444-243.29 17.848-358.475 42.308l12.897-2.293c-1.746 0.358-3.754 0.563-5.809 0.563-14.238 0-26.178-9.841-29.389-23.092l-0.042-0.207c-0.38-1.785-0.598-3.835-0.598-5.936 0-14.163 9.886-26.017 23.133-29.038l0.2-0.038c105.825-22.864 228.81-37.68 354.641-41.092l2.758-0.059c52.291 0 512 14.551 512 132.774s-458.572 120.497-510.863 120.497-512-3.41-512-121.407v0s0-128.682 0-189.84c0-76.618 89.577-133.002 185.52-192.796 72.98-45.471 138.458-79.574 138.458-121.179v-300.334c0-60.021 105.719-98.444 188.703-98.444s189.84 39.56 189.84 99.581v60.476c0 78.21 0 123.908 0 170.060v68.206c0 41.606 64.114 74.799 136.412 120.043 95.488 59.794 185.975 116.405 184.611 192.341v32.966c0.001 0.068 0.001 0.147 0.001 0.227 0 16.574-13.436 30.011-30.011 30.011 0 0-0.001 0-0.001 0v0z" />
</font>
</defs>
</svg>
